<?xml version="1.0" encoding="UTF-8"?>
<svg version="1.1" xmlns="http://www.w3.org/2000/svg" width="2660" height="2000">
<path d="M0 0 C169.95 0 339.9 0 515 0 C514.38095515 21.04752497 513.71780088 42.00062756 512.375 63 C512.29022655 64.34056563 512.20545903 65.68113164 512.12069702 67.021698 C506.68213794 152.52730456 497.79297843 237.83359678 402 817 C401.82918159 817.72067406 401.65836319 818.44134811 401.48236847 819.18386078 C382.41910071 899.59190887 360.4825403 979.30874852 331 1074 C330.68581116 1075.00101746 330.37162231 1076.00203491 330.0479126 1077.03338623 C311.66849985 1135.54920552 292.45740255 1193.89556954 271.65771484 1251.59761047 C269.65943609 1257.14454626 267.69309969 1262.70167291 265.75390625 1268.26953125 C265.49416016 1269.01527405 265.23441406 1269.76101685 264.96679688 1270.52935791 C264.70850098 1271.2710321 264.45020508 1272.0127063 264.18408203 1272.77685547 C248.724913 1317.16376628 232.14019169 1361.14795265 215.58276367 1405.13378906 C212.7164425 1412.75383034 209.85860258 1420.37705979 207 1428 C88.86 1428 -29.28 1428 -151 1428 C-149.49415913 1423.4824774 -147.84782822 1419.3049334 -145.83203125 1415.0234375 C-145.1871171 1413.63616427 -144.54260439 1412.24870436 -143.8984375 1410.86108398 C-143.5590918 1410.13218964 -143.21974609 1409.40329529 -142.87011719 1408.65231323 C-114.18373012 1346.88337676 -92.03101107 1282.4493403 -70.34472656 1217.96679688 C-68.83557568 1213.47957788 -67.3222685 1208.99380985 -65.80371094 1204.50976562 C-43.34069611 1138.17066163 -22.54990307 1071.1082649 -4.59487915 1003.40141296 C-1.52643185 991.88455593 1.72302182 980.46942363 5 969 C-9.85 969 -24.7 969 -40 969 C-40.66 971.97 -41.32 974.94 -42 978 C-42.52993573 979.86586804 -43.08728413 981.72435645 -43.68212891 983.57055664 C-44.16775551 985.08712105 -44.16775551 985.08712105 -44.66319275 986.63432312 C-45.01410477 987.71534805 -45.36501678 988.79637299 -45.7265625 989.91015625 C-46.10216812 991.07734695 -46.47777374 992.24453766 -46.86476135 993.44709778 C-47.89677028 996.64871035 -48.93278765 999.84896153 -49.97143173 1003.04842377 C-50.63017748 1005.07845525 -51.28762141 1007.10890424 -51.94473267 1009.13946533 C-67.97858602 1058.67105028 -84.2099741 1108.15745346 -101.95239258 1157.10717773 C-103.04601317 1160.12705897 -104.13558859 1163.14837905 -105.22460938 1166.16992188 C-117.27508618 1199.57301489 -130.02312346 1232.58798366 -144.27172852 1265.11669922 C-148.76961756 1275.39258648 -153.07063755 1285.74300704 -157.30737305 1296.12890625 C-158.01373901 1297.85367187 -158.01373901 1297.85367187 -158.734375 1299.61328125 C-159.35650879 1301.14142456 -159.35650879 1301.14142456 -159.99121094 1302.70043945 C-161 1305 -161 1305 -162 1306 C-164.60772076 1306.23977393 -167.19055331 1306.41504419 -169.80453491 1306.54393005 C-170.6115234 1306.58579514 -171.41851189 1306.62766023 -172.24995458 1306.67079395 C-181.53946611 1307.12075824 -190.82876372 1307.21847709 -200.12744141 1307.29711914 C-202.07096202 1307.31661911 -204.01447902 1307.33648165 -205.95799255 1307.35667419 C-211.17367172 1307.4098573 -216.38938589 1307.45804348 -221.60512209 1307.50525212 C-227.07836056 1307.55566809 -232.5515517 1307.61079116 -238.02474976 1307.66539001 C-248.36204121 1307.76780898 -258.69936776 1307.86606611 -269.03671396 1307.96278423 C-280.81686686 1308.07320745 -292.59697235 1308.18833695 -304.37707639 1308.30383885 C-328.58466882 1308.54108588 -352.79231417 1308.77249726 -377 1309 C-376.37120346 1304.96880026 -375.57106664 1301.54794628 -373.9453125 1297.80078125 C-373.50533936 1296.77911865 -373.06536621 1295.75745605 -372.61206055 1294.70483398 C-372.12133057 1293.58536377 -371.63060059 1292.46589355 -371.125 1291.3125 C-370.60397705 1290.10988525 -370.0829541 1288.90727051 -369.54614258 1287.66821289 C-364.2496442 1275.46293595 -358.8369718 1263.30798463 -353.4498291 1251.14254761 C-320.76497678 1177.31728805 -290.13475683 1102.4129882 -264 1026 C-263.74476563 1025.25385437 -263.48953125 1024.50770874 -263.2265625 1023.73895264 C-261.34399718 1018.22694097 -259.48053473 1012.70866191 -257.625 1007.1875 C-257.26236053 1006.11429504 -257.26236053 1006.11429504 -256.89239502 1005.01940918 C-252.87309367 993.10000645 -249.46197101 981.11689854 -246 969 C-260.85 969.33 -275.7 969.66 -291 970 C-292.753125 975.506875 -294.50625 981.01375 -296.3125 986.6875 C-324.95663511 1075.32064864 -358.48373322 1163.75343331 -396 1249 C-396.3495575 1249.7943042 -396.69911499 1250.5886084 -397.05926514 1251.40698242 C-407.62692224 1275.40086796 -418.32765628 1299.33338234 -429.30418396 1323.14318848 C-431.26258103 1327.39174337 -433.2056939 1331.64693669 -435.140625 1335.90625 C-449.44106991 1367.2403072 -464.91058697 1398.09352719 -482 1428 C-565.16 1428 -648.32 1428 -734 1428 C-733.05644724 1423.28223619 -731.53668215 1419.67351513 -729.38916016 1415.45361328 C-728.83023071 1414.33750671 -728.83023071 1414.33750671 -728.26000977 1413.19885254 C-727.02524293 1410.73650823 -725.78210209 1408.27848946 -724.5390625 1405.8203125 C-723.66944699 1404.08923304 -722.80042845 1402.35785358 -721.93197632 1400.62619019 C-719.63646968 1396.05231128 -717.33416249 1391.48189163 -715.0300293 1386.91235352 C-710.94194441 1378.80224663 -706.86511377 1370.68647228 -702.7890625 1362.5703125 C-702.35202562 1361.70047792 -701.91498875 1360.83064335 -701.46470833 1359.93445015 C-695.19400858 1347.448919 -689.02016271 1334.92761787 -683.0748291 1322.28308105 C-682.03326529 1320.07065994 -680.98372356 1317.86224278 -679.93066406 1315.65527344 C-670.56626007 1296.02849699 -661.58116334 1276.25139637 -652.8120575 1256.35220337 C-650.81301214 1251.82181104 -648.78750917 1247.30479845 -646.73828125 1242.796875 C-608.53504821 1158.73305101 -577.4777608 1071.35243659 -544.95593262 978.72387695 C-544.01540866 976.04390611 -543.07296811 973.36461734 -542.12988281 970.68554688 C-503.47274872 861.16919123 -503.47274872 861.16919123 -471.50247192 749.56958008 C-470.10390234 744.10390234 -470.10390234 744.10390234 -469 743 C-466.35243839 742.88970848 -463.73041507 742.84503214 -461.08189392 742.84178162 C-460.24066422 742.83684364 -459.39943451 742.83190566 -458.532713 742.82681805 C-455.68709397 742.81135176 -452.84149772 742.80305508 -449.99584961 742.79467773 C-447.96116944 742.78510007 -445.92649126 742.77509006 -443.89181519 742.76467896 C-438.31797463 742.73745673 -432.74412561 742.71650206 -427.17025447 742.69667697 C-421.2549728 742.67467785 -415.33971579 742.64730355 -409.42445374 742.62062073 C-399.39536704 742.57616623 -389.36627062 742.53550418 -379.3371582 742.49731445 C-369.22646586 742.45879827 -359.11579219 742.41739865 -349.00512695 742.37231445 C-347.78391565 742.36686942 -346.56270434 742.36142438 -345.30448663 742.35581434 C-343.47633069 742.34766248 -343.47633069 742.34766248 -341.61124229 742.33934593 C-281.07393709 742.06961739 -220.53788857 741.93039961 -160 742 C-159.85893829 741.24764069 -159.71787659 740.49528137 -159.57254028 739.72012329 C-158.81975674 736.14366917 -157.59475885 732.7700786 -156.3671875 729.3359375 C-155.80952226 727.75005866 -155.25276513 726.16386029 -154.69677734 724.57739258 C-154.25262482 723.31181015 -154.25262482 723.31181015 -153.79949951 722.0206604 C-127.44520908 646.60201312 -110.04309197 568.35520623 -93.42138672 490.32128906 C-92.84096754 487.59697381 -92.26040278 484.87268965 -91.6796875 482.1484375 C-91.46132547 481.12374611 -91.46132547 481.12374611 -91.23855209 480.07835388 C-88.7983393 468.63663889 -86.29136757 457.21044164 -83.7578125 445.7890625 C-63.42145233 354.06827433 -44.85118833 261.99312925 -4.55957031 25.74902344 C-4.44359308 25.00116262 -4.32761585 24.25330181 -4.20812416 23.48277855 C-3.65667157 19.92299539 -3.1086188 16.36274189 -2.56637573 12.80154419 C-2.37447662 11.55460785 -2.18257751 10.30767151 -1.98486328 9.02294922 C-1.81802032 7.92796112 -1.65117737 6.83297302 -1.47927856 5.70480347 C-1 3 -1 3 0 0 Z " fill="#00314A" transform="translate(2072,278)"/>
<path d="M0 0 C9.4822625 0.00798226 18.96452367 0.01342599 28.44678879 0.01709497 C29.12384267 0.01735769 29.80089654 0.01762042 30.49846721 0.0178911 C33.89827012 0.01919704 37.29807304 0.02046053 40.69787598 0.021703 C68.47860614 0.03190957 96.25932783 0.0494535 124.04005051 0.07202661 C123.91044857 5.62692391 123.77918198 11.18177872 123.64649296 16.73660314 C123.60174542 18.61910902 123.55742206 20.50162504 123.5135622 22.38415182 C123.13612186 38.56442108 122.55039064 54.72008986 121.72755051 70.88452661 C121.66347 72.16220911 121.5993895 73.4398916 121.53336716 74.75629175 C116.47889035 174.63533085 104.55079674 274.37061254 83.04005051 391.07202661 C82.83335739 392.15320764 82.62666428 393.23438867 82.41370773 394.34833276 C69.52975718 461.55866939 54.13255935 528.29230222 35.25538254 594.08252466 C34.97074646 595.07773126 34.68611038 596.07293787 34.39284897 597.09830225 C33.86301355 598.94681829 33.32950036 600.79428573 32.79162216 602.64047754 C32.55915283 603.45005914 32.3266835 604.25964075 32.08716965 605.09375513 C31.88370422 605.79436563 31.6802388 606.49497613 31.47060776 607.21681726 C30.92701464 609.2416626 30.92701464 609.2416626 31.04005051 612.07202661 C43.29953641 602.98124096 55.2450949 593.75665287 66.48536301 583.40796411 C68.65947149 581.42001782 70.86427826 579.48669323 73.10255051 577.57202661 C80.67219752 570.97960862 87.55580578 563.72182773 94.04005051 556.07202661 C94.84958176 555.14003442 95.65911301 554.20804224 96.49317551 553.24780786 C143.5233062 498.8355377 168.75963827 432.0487996 191.16315842 364.70544946 C191.95149651 362.33796596 192.74389901 359.97189264 193.5376091 357.6062063 C220.49954749 276.96633672 231.35404544 192.1151471 231.04005051 0.07202661 C306.94005051 0.07202661 382.84005051 0.07202661 461.04005051 0.07202661 C468.14088355 36.75966399 468.14088355 36.75966399 469.66505051 47.00952661 C469.76266678 47.66193323 469.86028305 48.31433984 469.96085739 48.98651636 C481.99901126 130.13844141 481.56290107 212.65423184 369.87769699 543.99902856 C368.49479338 546.31158439 367.13163882 548.63126784 365.78248215 550.96338403 C359.93485114 561.05241536 353.73496508 570.83453878 347.22755051 580.50952661 C346.7489357 581.22403986 346.27032089 581.9385531 345.77720261 582.67471826 C335.11102071 598.59554861 324.09277342 614.16565013 312.04005051 629.07202661 C311.21803146 630.09127222 311.21803146 630.09127222 310.37940598 631.13110864 C303.69544607 639.39698259 296.90968096 647.50742868 289.63770676 655.26343286 C287.6274665 657.43691067 285.68274274 659.63515225 283.75098801 661.87671411 C279.88275888 666.31572565 275.77590268 670.48371279 271.60255051 674.63452661 C270.89034348 675.35060083 270.17813644 676.06667505 269.44434738 676.80444849 C250.97852366 695.23672847 229.77384891 711.2828815 207.04005051 724.07202661 C206.32655441 724.4766311 205.61305832 724.88123559 204.87794113 725.29810083 C189.64646774 733.85839951 173.81832176 740.22506952 157.04005051 745.07202661 C157.58194016 745.32258813 158.1238298 745.57314966 158.68214035 745.83130395 C190.11657351 760.4265714 220.05500966 777.95034094 246.04005051 801.07202661 C246.77473557 801.72058618 247.50942062 802.36914575 248.26636887 803.03735864 C254.57467306 808.65065394 260.63012213 814.4789865 266.60255051 820.44702661 C267.48362473 821.31585474 268.36469894 822.18468286 269.27247238 823.07983911 C275.29928755 829.09331078 280.767019 835.39122079 286.04005051 842.07202661 C286.77179489 842.98444116 286.77179489 842.98444116 287.51832199 843.91528833 C323.4036927 888.81982526 344.7976153 943.91808624 350.04005051 1001.07202661 C350.1254509 1001.99668725 350.21085129 1002.9213479 350.29883957 1003.87402856 C352.88128224 1035.14796467 351.46097996 1066.92438248 348.04005051 1098.07202661 C347.94059128 1098.98852991 347.84113205 1099.9050332 347.73865891 1100.84930933 C344.75895056 1128.16445077 341.10433302 1155.25686901 335.04005051 1182.07202661 C334.89178818 1182.72870325 334.74352585 1183.38537988 334.59077072 1184.06195581 C325.93069685 1222.10370635 312.62341452 1259.43204862 296.11964035 1294.7570852 C295.0354279 1297.08193877 293.96864436 1299.41424279 292.90333176 1301.74780786 C274.10541883 1342.57718068 249.44556978 1382.81425196 220.44337797 1417.24115276 C218.94038732 1419.11321662 218.94038732 1419.11321662 217.64447832 1421.54989123 C214.82173324 1426.04322317 212.67502081 1428.65648332 207.4168272 1429.99290335 C202.74128759 1430.46873676 198.06625634 1430.35788483 193.37391281 1430.27457178 C191.55208099 1430.27893446 189.73025529 1430.28769387 187.908463 1430.30046344 C182.90903915 1430.32280784 177.91176054 1430.2828539 172.91261005 1430.23268282 C167.51938194 1430.18948393 162.12627406 1430.20411284 156.7329216 1430.21170557 C147.39099096 1430.2169483 138.04975891 1430.18558316 128.708004 1430.12932718 C115.20153257 1430.04804426 101.69539883 1430.02201158 88.18870932 1430.00944726 C66.2750326 1429.98756279 44.3617282 1429.9210186 22.44825363 1429.82642114 C1.16179561 1429.73462599 -20.12450872 1429.66384431 -41.41112137 1429.62134302 C-42.72329763 1429.61871578 -44.0354739 1429.61608855 -45.38741308 1429.6133817 C-51.97023872 1429.60033129 -58.55306508 1429.58769422 -65.13589191 1429.57526267 C-119.74416824 1429.47160113 -174.35204104 1429.29547469 -228.95994949 1429.07202661 C-227.72007252 1425.25063366 -226.43137172 1421.84575106 -224.41307449 1418.36890161 C-223.9051033 1417.48452417 -223.39713211 1416.60014673 -222.87376785 1415.68896997 C-222.32470779 1414.74287866 -221.77564774 1413.79678735 -221.20994949 1412.82202661 C-216.31634938 1404.2810568 -211.54512226 1395.68682024 -206.89744949 1387.00952661 C-206.31116776 1385.91527368 -205.72488602 1384.82102075 -205.12083817 1383.69360864 C-203.95617074 1381.51979941 -202.79153795 1379.34597162 -201.62694168 1377.17212427 C-199.11521689 1372.50108129 -196.56944577 1367.84890068 -194.02244949 1363.19702661 C-187.26744375 1350.83965052 -180.6139977 1338.42824297 -173.98857498 1326.00104272 C-172.94557762 1324.04507455 -171.90175644 1322.08954746 -170.85789871 1320.13403833 C-144.8372379 1271.36361836 -119.08180746 1222.21297063 -96.24705887 1171.86353052 C-94.56861436 1168.22329256 -92.80273489 1164.62918177 -91.03538895 1161.03149927 C-51.93931911 1081.11103821 -18.99364697 990.55451577 -0.95994949 869.07202661 C-0.8642366 868.11046655 -0.76852371 867.14890649 -0.66991043 866.15820825 C0.23649773 855.99522859 0.28238965 845.83033915 0.29005051 835.63452661 C0.29105759 834.70304803 0.29206467 833.77156946 0.29310226 832.81186426 C0.28302503 819.02694619 -0.13625209 805.61073116 -2.95994949 792.07202661 C-3.1448494 791.07042505 -3.1448494 791.07042505 -3.33348465 790.04858911 C-6.13934271 775.08401278 -13.9544781 760.47162705 -23.95994949 749.07202661 C-26.51786259 756.32036135 -28.48340203 763.67789501 -30.3724308 771.12288797 C-31.1425222 774.15620198 -31.92092613 777.1873672 -32.69865513 780.21873033 C-33.11576254 781.84477236 -33.53251872 783.47090452 -33.94894314 785.0971216 C-53.43188997 861.17964801 -75.10168529 936.56290534 -99.96055984 1011.07452905 C-100.89093244 1013.86502182 -101.81807283 1016.65656392 -102.74412918 1019.44849145 C-122.80915263 1079.85510833 -147.39603065 1138.29630358 -174.03154373 1196.05701196 C-174.91405748 1197.97242244 -175.79463334 1199.8887079 -176.67430496 1201.80542505 C-183.96233591 1217.67752608 -191.47382751 1233.42924375 -199.12561417 1249.12823999 C-199.4602417 1249.81480676 -199.79486923 1250.50137353 -200.13963699 1251.20874536 C-200.47108215 1251.88870569 -200.80252731 1252.56866601 -201.14401627 1253.2692312 C-203.08746325 1257.26183782 -205.00820463 1261.26412513 -206.90526199 1265.27905786 C-219.59128905 1292.11341338 -233.15005406 1318.59595983 -247.56639481 1344.54224145 C-249.09022642 1347.30852442 -250.5860243 1350.08875675 -252.07713699 1352.87280786 C-259.11152717 1366.00126389 -266.43485236 1378.92434422 -274.00340652 1391.75171411 C-276.18172607 1395.44838816 -278.35108724 1399.15022672 -280.51854324 1402.85327661 C-281.29555063 1404.18051277 -282.07256882 1405.50774262 -282.84959793 1406.83496606 C-283.23112015 1407.48663751 -283.61264236 1408.13830896 -284.00572586 1408.80972803 C-285.81624782 1411.90167871 -287.62784551 1414.99299648 -289.44041824 1418.08374536 C-290.04780838 1419.11974878 -290.65519852 1420.1557522 -291.28099442 1421.22314966 C-291.83504959 1422.16327905 -292.38910477 1423.10340845 -292.95994949 1424.07202661 C-293.38585688 1424.94220454 -293.81176426 1425.81238246 -294.25057793 1426.70892942 C-295.95994949 1429.07202661 -295.95994949 1429.07202661 -298.23758888 1429.71084249 C-299.59946296 1429.72055247 -299.59946296 1429.72055247 -300.98884964 1429.73045862 C-302.57709108 1429.75961642 -302.57709108 1429.75961642 -304.19741821 1429.78936327 C-305.378951 1429.78523738 -306.56048378 1429.7811115 -307.77782059 1429.77686059 C-309.05121922 1429.79185916 -310.32461784 1429.80685773 -311.63660431 1429.82231081 C-315.26267326 1429.86349171 -318.88824001 1429.87193139 -322.5145154 1429.87538207 C-325.70152788 1429.88250469 -328.888287 1429.90825517 -332.07519615 1429.93390471 C-343.57844237 1430.02586602 -355.08159344 1430.04910351 -366.58515358 1430.06642187 C-371.30075245 1430.07425337 -376.01634241 1430.08530774 -380.73193526 1430.09610963 C-416.92391235 1430.17768998 -453.11571173 1430.17220488 -489.30774379 1430.14405799 C-499.75512565 1430.13601695 -510.20250661 1430.13063087 -520.6498909 1430.12695825 C-521.76773489 1430.12656417 -521.76773489 1430.12656417 -522.9081616 1430.12616212 C-526.65005688 1430.12485625 -530.39195217 1430.12359274 -534.13384748 1430.12235022 C-564.74255311 1430.11213246 -595.3512503 1430.0945779 -625.95994949 1430.07202661 C-624.45434561 1426.186427 -622.68848536 1422.7871786 -620.50291824 1419.23218286 C-619.99427734 1418.40051851 -619.99427734 1418.40051851 -619.47536087 1417.55205286 C-618.74774845 1416.36294983 -618.01849182 1415.17485161 -617.2877388 1413.98767602 C-615.34447618 1410.82956872 -613.4146636 1407.66325388 -611.48338699 1404.49780786 C-611.09530365 1403.86237054 -610.70722031 1403.22693323 -610.30737686 1402.57224023 C-605.30282709 1394.37025671 -600.42264127 1386.09562778 -595.56346512 1377.80688989 C-594.46724133 1375.93723416 -593.36951509 1374.06845876 -592.27049637 1372.20044458 C-584.48107597 1358.95974716 -576.86422451 1345.63350315 -569.38963699 1332.21265161 C-567.18394089 1328.25409267 -564.96179645 1324.30585204 -562.71776199 1320.36890161 C-555.19035883 1307.16232621 -547.93839964 1293.82070335 -540.8011055 1280.40045679 C-538.6749365 1276.40524385 -536.53136845 1272.41981629 -534.37791824 1268.43921411 C-512.0147086 1227.05554465 -490.35780212 1185.07102677 -470.81541824 1142.27905786 C-468.48518669 1137.18043832 -466.06893069 1132.12951682 -463.61571121 1127.08911645 C-456.38824619 1112.23760119 -449.70183286 1097.1625605 -443.04443741 1082.04984033 C-440.74726308 1076.839858 -438.42439888 1071.64205355 -436.08494949 1066.45093286 C-398.1386465 982.13195715 -365.05391061 895.32395434 -331.30121231 794.1749624 C-329.97691651 790.14969576 -328.6464032 786.12667618 -327.30321121 782.10767114 C-308.12374995 724.71472143 -291.38456444 666.57675926 -275.95994949 608.07202661 C-275.78707916 607.41663904 -275.61420883 606.76125146 -275.43610001 606.08600366 C-255.33104738 529.81541848 -238.28445178 452.81567817 -213.95994949 315.07202661 C-213.75794937 313.82157556 -213.55594925 312.57112451 -213.34782791 311.282781 C-198.82660761 221.28789159 -189.65121036 130.61836152 -180.95994949 1.07202661 C-120.64236238 -0.10791895 -60.32687223 -0.05173059 0 0 Z " fill="#00314A" transform="translate(673.9599494934082,276.92797338962555)"/>
<path d="M0 0 C0.33 0.66 0.66 1.32 1 2 C0.36579895 3.70904541 0.36579895 3.70904541 -0.71557617 5.79003906 C-1.31891029 6.96765053 -1.31891029 6.96765053 -1.93443298 8.16905212 C-2.60690819 9.4543557 -2.60690819 9.4543557 -3.29296875 10.765625 C-4.23787796 12.60883709 -5.18218935 14.45235574 -6.12597656 16.29614258 C-6.6261731 17.26742096 -7.12636963 18.23869934 -7.64172363 19.2394104 C-17.17655503 37.80966729 -26.01925524 56.30692329 -33 76 C-33.21940247 76.61840759 -33.43880493 77.23681519 -33.66485596 77.8739624 C-58.54378226 148.32041704 -67.2482556 225.9655612 -35.17773438 295.54003906 C-15.8249796 335.96258407 16.52359749 369.40846336 59 385 C110.75262441 402.87646366 167.02074747 393.59063355 215.45559692 370.15423584 C219.7691604 368.05370688 224.06998406 365.92768809 228.36816406 363.79589844 C234.12038043 360.94579833 239.9034229 358.15971638 245.6875 355.375 C246.68370361 354.89063477 247.67990723 354.40626953 248.70629883 353.90722656 C254.71255464 351.00917106 260.77267706 348.38695641 267 346 C265.26383071 349.69247839 263.10549826 352.2559743 260.3125 355.25 C257.31520384 358.48815511 254.32945391 361.72928552 251.4375 365.0625 C248.82298058 368.07073528 246.17048344 371.04130249 243.5 374 C239.62489964 378.29843065 235.78827426 382.62491463 232 387 C231.57879883 387.4842041 231.15759766 387.9684082 230.72363281 388.46728516 C227.11668014 392.61766528 223.54546829 396.79698447 220 401 C219.50838379 401.58136719 219.01676758 402.16273438 218.51025391 402.76171875 C177.96659975 451.05058084 152.8503413 512.51106094 146 575 C145.85860596 576.25478149 145.85860596 576.25478149 145.71435547 577.53491211 C144.73158939 587.52167903 144.75639332 597.53701002 144.75 607.5625 C144.74932526 608.51575165 144.74865051 609.4690033 144.74795532 610.45114136 C144.76555557 626.15664493 145.47520416 641.46942657 148 657 C148.25740967 658.60319092 148.25740967 658.60319092 148.52001953 660.23876953 C152.52854212 684.42244784 159.48074804 707.38026686 168.02148438 730.31640625 C169.43196785 734.18467828 170.72230216 738.08603953 172 742 C171.0298999 742.17539307 170.0597998 742.35078613 169.06030273 742.53149414 C142.15509772 747.42922841 116.92574338 753.41234435 92 765 C91.27200195 765.33644531 90.54400391 765.67289063 89.79394531 766.01953125 C58.00392353 780.87164007 28.38381206 804.13860983 7 832 C6.21109375 832.94101562 5.4221875 833.88203125 4.609375 834.8515625 C-4.95199426 846.62823757 -11.17372594 860.51894148 -17.94825745 873.99424744 C-22.08477856 882.19762816 -26.52145246 890.23148137 -31.03295898 898.23364258 C-32.05797133 900.01063882 -32.05797133 900.01063882 -32.79003906 902.07250977 C-34.51131438 904.81453331 -36.36173509 905.301143 -39.36328125 906.4453125 C-41.0189209 907.09330811 -41.0189209 907.09330811 -42.70800781 907.75439453 C-43.89749023 908.20669434 -45.08697266 908.65899414 -46.3125 909.125 C-48.79514207 910.09913086 -51.27595396 911.07662803 -53.75390625 912.0625 C-54.37486176 912.30880157 -54.99581726 912.55510315 -55.6355896 912.80886841 C-61.1312829 915.00904626 -66.44373373 917.5074206 -71.75 920.125 C-95.56361126 931.72802563 -120.67852612 940.27775981 -146.6875 945.3125 C-147.34291779 945.43947266 -147.99833557 945.56644531 -148.6736145 945.69726562 C-156.28240997 947.14944878 -163.82432999 948.23301702 -171.53735352 948.91601562 C-183.03101647 949.991944 -190.08927548 953.04275144 -198.96191406 960.35400391 C-201.9423911 962.76109257 -205.05400519 964.97536057 -208.16040039 967.21606445 C-221.95908431 977.20387856 -235.18247977 987.78667505 -248 999 C-249.29164063 1000.12148437 -249.29164063 1000.12148437 -250.609375 1001.265625 C-262.06750326 1011.37573817 -272.48338579 1022.04535359 -281.67773438 1034.25 C-318.59657585 1083.11156863 -363.9771559 1109.12041313 -425.20703125 1117.77734375 C-429.46302821 1118.31667119 -433.72108045 1118.69914628 -438 1119 C-438.74781738 1119.05494629 -439.49563477 1119.10989258 -440.26611328 1119.16650391 C-489.00587541 1122.62677184 -546.82417628 1117.74199314 -585.9375 1085.125 C-598.0387983 1073.62529588 -606.66743739 1058.16776127 -607.43359375 1041.2734375 C-607.45701234 1039.30743071 -607.45774032 1037.34104208 -607.4375 1035.375 C-607.42992676 1034.33029541 -607.42235352 1033.28559082 -607.41455078 1032.20922852 C-606.69378589 997.92554672 -585.87661204 965.12813748 -562.40625 941.375 C-552.99075633 932.57090203 -541.90024485 925.79353937 -531 919 C-532.59714844 918.09121094 -532.59714844 918.09121094 -534.2265625 917.1640625 C-566.41349955 898.66440779 -594.71090446 873.71762912 -613 841 C-613.41459473 840.26894043 -613.82918945 839.53788086 -614.25634766 838.78466797 C-651.86243353 771.89482182 -654.22120475 687.79340602 -633.97216797 615.04418945 C-625.51547361 585.00964401 -616.44415411 555.22148612 -603 527 C-602.61199219 526.16259277 -602.22398438 525.32518555 -601.82421875 524.46240234 C-594.46458826 508.59557011 -585.25808077 493.80816229 -576 479 C-575.37053467 477.99074463 -574.74106934 476.98148926 -574.0925293 475.94165039 C-570.97171885 470.98091207 -567.79077887 466.18476404 -564.1875 461.5625 C-563.77733643 461.01722656 -563.36717285 460.47195313 -562.94458008 459.91015625 C-560.80760181 457.11106704 -558.65058048 454.604688 -556.03125 452.24609375 C-550.81446074 447.31527028 -550.81446074 447.31527028 -548.84863281 440.62109375 C-549.17783535 435.20036002 -550.31108369 429.99351311 -551.47607422 424.70263672 C-553.43607867 414.59208253 -553.24150711 404.13743249 -553.25 393.875 C-553.25067474 393.13422211 -553.25134949 392.39344421 -553.25204468 391.63021851 C-553.14789746 318.97731736 -520.55936404 248.78996219 -474 194 C-473.18402344 193.01128906 -472.36804687 192.02257812 -471.52734375 191.00390625 C-456.10965496 172.37864591 -439.07701997 154.89609827 -420 140 C-418.65320582 138.92372746 -417.30689192 137.84685379 -415.9609375 136.76953125 C-376.86079545 105.67437978 -332.77755375 84.70935724 -286.60159302 66.44000244 C-284.49547932 65.60629985 -282.39039068 64.77000297 -280.28634644 63.93109131 C-277.31838464 62.75014956 -274.34564443 61.58219803 -271.37109375 60.41796875 C-270.01830322 59.87678154 -270.01830322 59.87678154 -268.63818359 59.32466125 C-267.39113647 58.84140633 -267.39113647 58.84140633 -266.11889648 58.34838867 C-265.392827 58.06259445 -264.66675751 57.77680023 -263.91868591 57.48234558 C-262 57 -262 57 -259 58 C-263.38248861 63.44961941 -267.78849367 68.83146925 -272.5 74 C-276.42846715 78.31040146 -280.11104575 82.77931956 -283.7734375 87.31640625 C-285.81551515 89.7776472 -287.9372288 92.10633556 -290.125 94.4375 C-314.50036591 121.35638235 -333.91099408 154.83760419 -346 189 C-346.27247559 189.76119141 -346.54495117 190.52238281 -346.82568359 191.30664062 C-363.15992715 237.68369818 -363.12241582 291.00670943 -342 336 C-331.00561315 358.16812749 -313.64067812 374.88800261 -290 383 C-279.93385255 386.08445098 -270.13810166 388.05109713 -259.625 388.5625 C-258.79355469 388.60568359 -257.96210937 388.64886719 -257.10546875 388.69335938 C-255.07046772 388.79861805 -253.03525297 388.89973072 -251 389 C-251.16081055 388.24017822 -251.32162109 387.48035645 -251.48730469 386.69750977 C-252.17549568 381.73434188 -252.18186892 376.84511616 -252.203125 371.83984375 C-252.21371445 370.20543587 -252.21371445 370.20543587 -252.22451782 368.53800964 C-252.45611647 322.19627225 -252.45611647 322.19627225 -249 301 C-248.70198486 299.16066895 -248.70198486 299.16066895 -248.39794922 297.28417969 C-235.03990519 217.65622885 -198.04393004 149.32110842 -141.53167725 92.35745239 C-140.4866745 91.30374763 -139.44304411 90.24867967 -138.40093994 89.19210815 C-131.60568641 82.31375788 -124.58545496 76.01689681 -117 70 C-115.7060603 68.92747568 -114.41529928 67.85109554 -113.12890625 66.76953125 C-79.14797059 38.47635137 -40.10690498 18.1359238 0 0 Z " fill="#00314A" transform="translate(1769,57)"/>
<path d="M0 0 C1 2 1 2 0.41430664 4.06176758 C-0.0827478 5.3402356 -0.0827478 5.3402356 -0.58984375 6.64453125 C-0.95811279 7.61616211 -1.32638184 8.58779297 -1.70581055 9.58886719 C-2.11226807 10.65266602 -2.51872559 11.71646484 -2.9375 12.8125 C-22.95645165 66.95511067 -33.99718679 130.52494668 -23 188 C-22.82839355 188.94697754 -22.65678711 189.89395508 -22.47998047 190.86962891 C-19.92192148 204.73892638 -16.07868153 217.85534038 -11 231 C-10.72430176 231.72880371 -10.44860352 232.45760742 -10.16455078 233.20849609 C-1.0984971 257.03601435 11.97182355 279.94605773 29 299 C29.45052734 299.50934082 29.90105469 300.01868164 30.36523438 300.54345703 C61.1171135 335.18551045 102.62343711 357.4664706 149 362 C152.1639821 362.16273998 155.32441535 362.20971552 158.4921875 362.23828125 C159.38789963 362.24793915 160.28361176 362.25759705 161.20646667 362.26754761 C164.09602018 362.29230081 166.98535199 362.3049343 169.875 362.3125 C170.85854462 362.31545074 171.84208923 362.31840149 172.85543823 362.32144165 C191.61219784 362.33425142 209.55985381 361.04541353 227.58764648 355.48168945 C230.13184398 354.9736739 231.57344184 355.16205439 234 356 C233.69932617 356.46035645 233.39865234 356.92071289 233.08886719 357.39501953 C206.46284976 398.36044544 188.44207937 442.07702078 179 490 C178.75991211 491.21059082 178.51982422 492.42118164 178.27246094 493.66845703 C171.19100773 531.74050243 171.67917956 575.00379548 179 613 C179.23025879 614.20398438 179.46051758 615.40796875 179.69775391 616.6484375 C182.11246773 628.90501312 185.03317467 640.93084515 188.96484375 652.7890625 C190.26564898 656.82401306 191.18346562 660.8430977 192 665 C186.84895472 666.80738431 181.73936364 668.32341636 176.4375 669.625 C136.21907582 679.97268628 99.91326966 701.90354105 69.484375 729.76171875 C66.37180373 732.56596928 63.19050259 735.28510383 60 738 C59.97812622 736.64358398 59.97812622 736.64358398 59.95581055 735.25976562 C59.456021 707.38457745 56.862852 681.587072 49.87890625 654.47314453 C49.0656762 651.25953045 48.30248103 648.03973974 47.5625 644.80859375 C38.11197083 603.98891604 19.85269722 566.60899846 -5 533 C-5.43022461 532.41669922 -5.86044922 531.83339844 -6.30371094 531.23242188 C-18.65139464 514.59533986 -32.64974232 499.29652811 -47.25 484.625 C-47.89936523 483.97096191 -48.54873047 483.31692383 -49.21777344 482.64306641 C-53.64866777 478.2267992 -58.25720888 474.07722146 -63 470 C-64.08276887 469.05031949 -65.16484219 468.09984517 -66.24609375 467.1484375 C-75.19006633 459.347669 -84.49725264 452.10469059 -94 445 C-94.63550781 444.52175781 -95.27101563 444.04351563 -95.92578125 443.55078125 C-117.88051025 427.05006914 -141.32614929 412.86736889 -165 399 C-165.06469482 400.16120361 -165.12938965 401.32240723 -165.19604492 402.51879883 C-166.92849157 432.92574749 -170.14385822 461.72648856 -179 491 C-179.23299805 491.78133301 -179.46599609 492.56266602 -179.70605469 493.36767578 C-193.07848622 537.64381545 -220.38981053 581.32660599 -257 610 C-257.53592773 610.42297363 -258.07185547 610.84594727 -258.62402344 611.28173828 C-285.33263013 632.19390999 -321.12949525 650.91086953 -356 648 C-359.9659401 647.19484344 -363.33883081 645.70308119 -367 644 C-368.58715098 643.32225482 -370.17584517 642.64811806 -371.765625 641.9765625 C-385.47079825 636.10729809 -396.15113822 629.28742906 -407 619 C-407.89847656 618.16597656 -408.79695313 617.33195313 -409.72265625 616.47265625 C-427.43279139 599.5097842 -436.90019384 578.57769543 -445.00830078 555.76367188 C-445.86105692 553.38720721 -446.74450025 551.02766432 -447.65234375 548.671875 C-462.86278156 508.62776687 -477.80499581 442.24119383 -471 399 C-469.96552734 397.79537109 -469.96552734 397.79537109 -468.91015625 396.56640625 C-466.63722893 394.07139799 -466.63722893 394.07139799 -467.125 390.55078125 C-467.4069001 389.03200887 -467.70011407 387.51532361 -468 386 C-468.32140362 383.82812187 -468.63302764 381.65478507 -468.9375 379.48046875 C-469.46838685 375.82963121 -470.00123502 372.17911884 -470.5390625 368.52929688 C-473.58406583 347.52104629 -473.84344464 327.0432703 -471 306 C-470.90348145 305.24187012 -470.80696289 304.48374023 -470.70751953 303.70263672 C-463.49937559 247.94308644 -434.67600057 197.31530311 -400 154 C-399.53287598 153.41428223 -399.06575195 152.82856445 -398.58447266 152.22509766 C-390.96203406 142.78689205 -382.42061954 134.21700174 -373.875 125.625 C-373.32196198 125.06660431 -372.76892395 124.50820862 -372.1991272 123.93289185 C-365.13295202 116.81487212 -357.8776406 110.22927784 -350 104 C-348.82586778 103.02379641 -347.65477522 102.04391184 -346.48828125 101.05859375 C-331.97470647 88.99371837 -315.9531175 78.85713003 -299.8125 69.125 C-298.99370361 68.63128906 -298.17490723 68.13757813 -297.33129883 67.62890625 C-293.6385673 65.4387721 -290.07279226 63.42017205 -286 62 C-287.24122644 65.27193438 -288.62863403 68.24241318 -290.43359375 71.23828125 C-322.5608096 125.45599984 -336.55797918 184.66641218 -324 247 C-323.83483887 247.86189941 -323.66967773 248.72379883 -323.49951172 249.61181641 C-317.03934433 283.05731202 -300.29110354 316.16073947 -271.9375 336.16015625 C-249.8791446 350.18991906 -225.7396382 357.20443556 -199.625 357.1875 C-198.58730469 357.18814453 -197.54960938 357.18878906 -196.48046875 357.18945312 C-186.89721191 357.12493916 -177.49329705 356.25383169 -168 355 C-168.13132324 354.27514404 -168.26264648 353.55028809 -168.39794922 352.8034668 C-179.97901778 286.55528812 -169.74285243 213.27755101 -140 153 C-139.32627418 151.60052445 -138.65308881 150.20078859 -137.98046875 148.80078125 C-124.58979342 121.22264096 -107.44593 95.85224911 -87 73 C-86.00516602 71.87597778 -86.00516602 71.87597778 -84.99023438 70.72924805 C-79.54578433 64.61497795 -73.91644225 58.72335636 -68.125 52.9375 C-67.24585938 52.05916504 -66.36671875 51.18083008 -65.4609375 50.27587891 C-59.56081406 44.43139642 -53.56676628 39.0832788 -47 34 C-45.14269596 32.42034809 -43.28872867 30.83676743 -41.4375 29.25 C-28.41924195 18.40145162 -14.31056792 9.03920683 0 0 Z " fill="#FE215E" transform="translate(1714,114)"/>
<path d="M0 0 C3.11580354 -0.00159994 6.23159943 -0.0051353 9.34740067 -0.00918579 C30.47214274 -0.03383807 51.54591706 0.0727549 72.64986038 1.12338257 C70.42984895 10.62754909 67.620728 19.90292813 64.66939163 29.19760132 C64.17906411 30.75057883 63.68900416 32.30364085 63.19919205 33.85678101 C61.89480717 37.98895767 60.58556254 42.11957781 59.27485275 46.24975204 C58.45804149 48.82449655 57.64242596 51.39961694 56.82716751 53.97485352 C47.92948014 82.07715443 38.96137116 110.15496229 29.64986038 138.12338257 C29.35524918 139.00957275 29.06063797 139.89576294 28.75709915 140.80880737 C19.99470147 167.14576972 10.64851263 193.22991801 0.64986038 219.12338257 C0.39265213 219.78950562 0.13544388 220.45562866 -0.12955856 221.14193726 C-25.39502643 286.43013689 -53.60037679 351.29483589 -85.16263962 413.77572632 C-86.93182975 417.27936673 -88.67406196 420.79586112 -90.41263962 424.31478882 C-90.96830612 425.43570923 -91.52397263 426.55662964 -92.09647751 427.71151733 C-93.18216001 429.90184691 -94.26493512 432.09362138 -95.3440361 434.28720093 C-96.37523458 436.36230886 -97.44291683 438.41973965 -98.54858017 440.45614624 C-99.8819635 443.0033748 -100.79498351 445.46992035 -101.61057663 448.22386169 C-103.26259607 453.02325667 -105.22620145 457.01275938 -109.35013962 460.12338257 C-117.95609709 463.05040768 -127.73783576 461.96503479 -136.71661735 461.68204808 C-140.75650498 461.57404675 -144.79677073 461.56286179 -148.83788681 461.54243469 C-155.32546383 461.50134254 -161.81164905 461.42903262 -168.29855293 461.32706195 C-183.09338807 461.09789507 -197.88451689 461.09675373 -212.68081078 461.13786677 C-216.06602351 461.14718634 -219.45123904 461.15536768 -222.83645439 461.16367149 C-223.51677977 461.16534498 -224.19710514 461.16701848 -224.89804644 461.16874268 C-226.28188006 461.17214566 -227.6657137 461.17553914 -229.04954736 461.17892326 C-230.44590419 461.18237052 -231.84226086 461.18588085 -233.23861738 461.18945335 C-248.98159514 461.22952022 -264.72446522 461.22507978 -280.46747795 461.21294233 C-282.65514434 461.21127146 -284.84281078 461.20971488 -287.03047729 461.20819783 C-292.90722849 461.20412041 -298.78397961 461.19996437 -304.66073048 461.19542444 C-315.18732663 461.18736085 -325.71392191 461.18198653 -336.24052048 461.17831421 C-336.99146107 461.17805149 -337.74240167 461.17778876 -338.51609804 461.17751808 C-342.28669083 461.1762122 -346.05728364 461.17494869 -349.82787645 461.17370617 C-380.66863577 461.16348933 -411.50938669 461.14593564 -442.35013962 461.12338257 C-441.40640021 459.3896295 -440.46222212 457.65611523 -439.51786423 455.92269897 C-438.99212311 454.95732208 -438.46638199 453.99194519 -437.92470932 452.99731445 C-430.63092626 439.68457532 -422.89443246 426.63161324 -415.05936813 413.63241577 C-408.37359079 402.52969004 -401.84754269 391.33710234 -395.35013962 380.12338257 C-394.74170212 379.07537476 -394.13326462 378.02736694 -393.50638962 376.94760132 C-368.6915153 334.19364077 -344.53390813 290.94333445 -324.07816696 245.90756226 C-322.20984593 241.80418619 -320.30535446 237.71790311 -318.40092087 233.63119507 C-285.69679201 163.33238508 -257.24789052 91.16363206 -233.69950485 17.29501343 C-232.58056631 13.80892103 -231.42499596 10.3355586 -230.26580429 6.86265564 C-229.9067302 5.78654809 -229.54765612 4.71044054 -229.177701 3.60172367 C-228.90460574 2.78387111 -228.63151049 1.96601854 -228.35013962 1.12338257 C-60.00233649 0.02002321 -60.00233649 0.02002321 0 0 Z " fill="#00314A" transform="translate(1393.35013961792,1245.8766174316406)"/>
<path d="M0 0 C8.831064 2.54447552 17.77285314 4.49664885 26.75 6.44921875 C28.42066113 6.81600466 30.09123466 7.18318987 31.76171875 7.55078125 C35.79848745 8.43818429 39.83639091 9.32023112 43.875 10.19921875 C41.31371007 12.77018103 38.74572355 15.32191252 36.11328125 17.8203125 C22.6541529 30.68013908 12.14142301 46.1951527 5.375 63.57421875 C5.11944336 64.21601074 4.86388672 64.85780273 4.60058594 65.51904297 C2.55439727 71.09210114 1.66127668 76.54058672 4.1875 82.07421875 C6.31714007 84.75598773 7.97413694 86.06673889 11.3984375 86.5703125 C12.80996094 86.60318359 12.80996094 86.60318359 14.25 86.63671875 C15.18585938 86.67667969 16.12171875 86.71664063 17.0859375 86.7578125 C21.04837354 85.96421537 22.38864003 84.34471441 24.875 81.19921875 C25.98513224 78.65260885 26.90393043 76.26213819 27.75 73.63671875 C31.62345377 62.55613215 37.36033201 53.2032804 44.875 44.19921875 C45.40609375 43.5340625 45.9371875 42.86890625 46.484375 42.18359375 C54.88947952 32.01741971 65.80263081 25.09031168 76.875 18.19921875 C77.865 17.53921875 78.855 16.87921875 79.875 16.19921875 C82.68756567 16.02474881 85.39847692 15.96783767 88.2097168 16.00390625 C89.4892498 16.00828705 89.4892498 16.00828705 90.79463196 16.01275635 C92.6557768 16.02038203 94.516907 16.03262949 96.37799644 16.04888916 C99.36749013 16.07459077 102.35680378 16.08750169 105.34638977 16.09716797 C112.80717039 16.12383863 120.26779108 16.17106813 127.72845459 16.2199707 C134.98951921 16.2669395 142.25052829 16.30376729 149.51171875 16.32421875 C150.53672359 16.32726013 151.56172844 16.33030151 152.61779404 16.33343506 C168.69792668 16.36414072 184.70516342 15.88789402 200.7552948 14.91064453 C213.6425636 14.12943893 226.47841381 13.79031649 239.375 14.69921875 C240.11363281 14.74691406 240.85226562 14.79460938 241.61328125 14.84375 C243.3674909 14.95765972 245.12130273 15.07767537 246.875 15.19921875 C243.30559029 18.91486126 239.53423694 22.13428872 235.4375 25.26171875 C225.28368076 33.12944418 215.61226319 41.53967565 206.11328125 50.18359375 C204.00310509 52.08385709 201.85212145 53.92406688 199.6875 55.76171875 C195.67905622 59.26811093 192.30391614 63.1348278 188.875 67.19921875 C187.99375263 68.20840011 187.11080837 69.21610114 186.2265625 70.22265625 C180.70000302 76.5441445 175.43169438 82.99506712 170.375 89.69921875 C139.95629175 129.92016627 98.57356763 149.89879623 48.87646484 156.83935547 C37.66044098 158.18411057 26.40823197 158.43867715 15.125 158.44921875 C14.36687012 158.45022583 13.60874023 158.45123291 12.82763672 158.45227051 C-1.31276126 158.43968481 -15.14893298 157.44624562 -29.125 155.19921875 C-29.97900391 155.06531738 -30.83300781 154.93141602 -31.71289062 154.79345703 C-56.10833047 150.79698406 -81.1740249 141.78047285 -97.5 122.44921875 C-104.72652512 112.06108889 -105.43121814 99.55555466 -103.53515625 87.42578125 C-97.81714623 59.07115764 -77.64832236 29.82806427 -53.6875 13.82421875 C-36.92735463 3.03635053 -19.87075236 -5.93943237 0 0 Z " fill="#FB9A00" transform="translate(1291.125,992.80078125)"/>
<path d="M0 0 C0.34611328 1.1763501 0.34611328 1.1763501 0.69921875 2.37646484 C5.23512309 17.68065986 9.81095419 32.69350594 17 47 C17.58998779 48.18625977 17.58998779 48.18625977 18.19189453 49.39648438 C43.31827778 99.55106259 86.18250771 135.50464028 139 154 C145.25012543 156.04443355 151.56857596 157.64019061 158 159 C158.76199707 159.16371094 159.52399414 159.32742188 160.30908203 159.49609375 C185.93721223 164.71773762 213.83514183 163.86065829 239 157 C239.84369141 156.77538086 240.68738281 156.55076172 241.55664062 156.31933594 C280.82710847 145.60495492 318.3689003 123.54614887 341 89 C343.83209241 97.49627724 339.1988086 106.45378636 335.42570496 114.00021362 C334.3163558 116.17306939 333.19069387 118.33687668 332.0625 120.5 C331.28840723 122.00881624 330.51522015 123.51809748 329.74291992 125.02783203 C327.85714872 128.70163607 325.94971952 132.36363669 324.03344727 136.02160645 C323.08904211 137.82954104 322.15436022 139.6425462 321.22070312 141.45605469 C319.7698147 144.2726434 318.29813576 147.07661997 316.8125 149.875 C316.20063843 151.05739258 316.20063843 151.05739258 315.57641602 152.26367188 C311.16794167 160.34299111 303.91214911 163.193583 295.875 167 C294.87654053 167.47348877 293.87808105 167.94697754 292.84936523 168.43481445 C243.63641984 191.55532045 195.93522001 203.2731495 141.625 203.4375 C140.66210052 203.44376404 139.69920105 203.45002808 138.7071228 203.45648193 C120.5034074 203.53164677 102.30340176 201.94337458 84.5625 197.6875 C83.65604736 197.47295166 82.74959473 197.25840332 81.81567383 197.03735352 C51.44120334 189.57870071 23.40505829 173.19992768 -1 154 C-2.44246094 152.87851562 -2.44246094 152.87851562 -3.9140625 151.734375 C-12.01102534 145.28546654 -19.55022331 138.17967425 -27 131 C-27.69101807 130.38632568 -28.38203613 129.77265137 -29.09399414 129.14038086 C-31.31139657 126.65031207 -31.9419104 124.82935986 -32.78125 121.6171875 C-33.06395752 120.54573486 -33.34666504 119.47428223 -33.63793945 118.37036133 C-33.92241943 117.21689209 -34.20689941 116.06342285 -34.5 114.875 C-34.95282349 113.07421997 -34.95282349 113.07421997 -35.41479492 111.23706055 C-38.41306494 98.92926275 -40.4726978 86.56888066 -42 74 C-42.11714355 73.06285156 -42.23428711 72.12570312 -42.35498047 71.16015625 C-44.01925103 57.21292597 -44.1779049 43.277231 -44.1875 29.25 C-44.18858765 28.37445465 -44.18967529 27.4989093 -44.1907959 26.59683228 C-44.19044255 24.09050811 -44.1813199 21.58441072 -44.16796875 19.078125 C-44.16675522 18.32188339 -44.16554169 17.56564178 -44.16429138 16.78648376 C-44.13399605 13.39012629 -44.06299308 10.24676789 -43 7 C-42.3922876 6.96559814 -41.7845752 6.93119629 -41.15844727 6.89575195 C-29.01333694 6.15791677 -17.76181166 4.9180384 -6.203125 1.0234375 C-3 0 -3 0 0 0 Z " fill="#D7FAA6" transform="translate(1406,780)"/>
<path d="M0 0 C1.31675699 3.71594244 0.69888133 6.48610338 -0.109375 10.29296875 C-0.3681543 11.55069092 -0.62693359 12.80841309 -0.89355469 14.10424805 C-1.03353882 14.76983734 -1.17352295 15.43542664 -1.31774902 16.1211853 C-4.12670521 29.54900333 -6.2933953 42.94944495 -7.65185547 56.60888672 C-7.91397159 59.16203742 -8.20198172 61.70655225 -8.50830078 64.25439453 C-10.14001837 78.33661235 -10.39807003 92.333171 -10.375 106.5 C-10.37478851 107.70355133 -10.37457703 108.90710266 -10.37435913 110.14712524 C-10.33850067 130.68518562 -9.17150015 150.71412646 -6 171 C-5.80212891 172.28342285 -5.60425781 173.5668457 -5.40039062 174.88916016 C0.33609506 211.17846564 9.80970552 247.00604596 32 277 C32.38365723 277.52207031 32.76731445 278.04414062 33.16259766 278.58203125 C38.70560407 286.08694996 44.58490386 293.21832694 51 300 C52.22783203 301.32451172 52.22783203 301.32451172 53.48046875 302.67578125 C68.10784065 317.95133802 85.78373579 328.80128484 106 335 C107.46373047 335.47953125 107.46373047 335.47953125 108.95703125 335.96875 C119.71559911 339.01442583 130.9250941 338.2767662 142 338 C132.38301626 348.07147258 120.67060678 355.3849895 108 361 C107.18789062 361.39058594 106.37578125 361.78117187 105.5390625 362.18359375 C98.26851986 364.52135284 92.71860262 362.03007549 86.125 359.0625 C85.20098389 358.65427002 84.27696777 358.24604004 83.32495117 357.82543945 C56.88887597 345.98278764 33.92929717 329.9477853 13 310 C12.32324219 309.38769531 11.64648438 308.77539062 10.94921875 308.14453125 C-10.64422593 288.04028965 -21.96635037 255.55827844 -30 228 C-30.24379395 227.17951172 -30.48758789 226.35902344 -30.73876953 225.51367188 C-42.00703635 186.95568313 -41.71037635 141.24569497 -34 102 C-33.71044434 100.4838208 -33.71044434 100.4838208 -33.41503906 98.93701172 C-26.6601737 64.82438703 -13.375045 31.95248688 0 0 Z " fill="#D6F9A5" transform="translate(1187,603)"/>
<path d="M0 0 C6.45839487 4.67937124 10.14283552 10.26153302 12 18 C12.6560376 23.88625765 12.61779276 29.80686491 12.57641602 35.72216797 C12.56252815 38.4943813 12.59672337 41.26322547 12.63476562 44.03515625 C12.68221698 55.1068276 11.86422092 62.91972386 4.75 71.8125 C-2.55501101 77.62330421 -8.021524 79.86112849 -17.55859375 79.48046875 C-24.37414605 78.52892172 -29.67137106 75.76954431 -34.375 70.75 C-39.6124293 63.69167749 -41.61785759 57.00801259 -41.56640625 48.28515625 C-41.57260483 47.38937363 -41.57880341 46.493591 -41.58518982 45.57066345 C-41.59224674 43.68912839 -41.58918678 41.80753034 -41.57641602 39.92602539 C-41.56254881 37.07254352 -41.59668357 34.22234671 -41.63476562 31.36914062 C-41.68029564 20.78236982 -41.53993858 12.11025756 -34.08618164 3.88916016 C-24.38056353 -5.76612966 -11.76137939 -6.06044877 0 0 Z " fill="#02304A" transform="translate(1329,590)"/>
<path d="M0 0 C7.35116843 4.10011978 12.14859439 10.04392738 14.9453125 17.93359375 C15.26416016 20.40283203 15.26416016 20.40283203 15.359375 23.00390625 C15.39853027 23.97376465 15.43768555 24.94362305 15.47802734 25.94287109 C15.50848145 26.97105957 15.53893555 27.99924805 15.5703125 29.05859375 C15.60463379 30.12158691 15.63895508 31.18458008 15.67431641 32.27978516 C15.74035808 34.45395526 15.80139946 36.62828304 15.85742188 38.80273438 C15.9377991 41.66594963 16.05453536 44.52518923 16.1796875 47.38671875 C16.57089004 58.6713232 15.44589951 66.24883709 7.5703125 74.87109375 C0.66769879 81.0981325 -5.31316088 81.49355349 -14.45703125 81.27734375 C-19.18141023 80.82593729 -22.31157887 79.81819123 -26.0546875 76.93359375 C-26.67859375 76.45921875 -27.3025 75.98484375 -27.9453125 75.49609375 C-33.67342822 70.49000943 -36.50530398 64.24952168 -37.2869873 56.68582153 C-37.61379001 51.32458975 -37.62436511 45.96825222 -37.57617188 40.59887695 C-37.55465287 37.74149479 -37.576088 34.88660451 -37.6015625 32.02929688 C-37.59892031 30.19140077 -37.59379757 28.3535062 -37.5859375 26.515625 C-37.59403442 25.67272415 -37.60213135 24.8298233 -37.61047363 23.96138 C-37.50358842 17.13929468 -35.64415415 11.8952307 -31.125 6.7265625 C-30.48304687 6.19675781 -29.84109375 5.66695312 -29.1796875 5.12109375 C-28.54289062 4.57839844 -27.90609375 4.03570313 -27.25 3.4765625 C-19.23309522 -2.15809478 -9.27354591 -3.23743994 0 0 Z " fill="#01304A" transform="translate(1411.0546875,586.06640625)"/>
<path d="M0 0 C3.29131315 1.56706764 5.54089833 3.28768885 8.1875 5.8125 C23.8474412 20.13674033 41.58955782 31.83310926 60.1640625 41.98730469 C63.12962735 43.62309764 66.06367936 45.31237242 69 47 C69 47.33 69 47.66 69 48 C62.69100214 48.02514778 56.38203489 48.0430663 50.07299805 48.05493164 C47.93692515 48.05988995 45.80085552 48.06665863 43.66479492 48.07543945 C25.37784941 48.14860445 7.03355795 48.10634831 -11.125 45.6875 C-12.10855469 45.56141357 -13.09210938 45.43532715 -14.10546875 45.30541992 C-23.5139524 44.04058587 -32.75746046 42.14714657 -42 40 C-42 39.01 -42 38.02 -42 37 C-39.8671875 35.16015625 -39.8671875 35.16015625 -36.875 33.0625 C-23.37222145 23.29861097 -11.61619684 11.91194803 0 0 Z " fill="#FC215E" transform="translate(1369,937)"/>
<path d="M0 0 C1.84762708 -0.03292955 3.69528216 -0.06434838 5.54296875 -0.09375 C6.35386963 -0.1153418 7.16477051 -0.13693359 8.00024414 -0.15917969 C14.07872125 -0.19342092 18.02904526 1.24247635 22.54296875 5.28125 C24.81739651 9.30523757 24.95737835 12.6350859 24.16796875 17.15625 C21.91060748 21.67097253 19.65863175 23.94660876 15.16796875 26.15625 C11.98364258 26.58862305 11.98364258 26.58862305 8.375 26.66796875 C7.71947144 26.68614655 7.06394287 26.70432434 6.3885498 26.72305298 C4.25256622 26.77813808 2.11691681 26.81197118 -0.01953125 26.84375 C-1.49911907 26.87390145 -2.97869283 26.90475106 -4.45825195 26.9362793 C-7.46167048 26.99685111 -10.46501744 27.04679433 -13.46875 27.08886719 C-17.50740404 27.14654316 -21.54429194 27.24757286 -25.58203125 27.3515625 C-27.89449192 27.39288754 -30.20699207 27.43208024 -32.51953125 27.46875 C-34.11027466 27.51358521 -34.11027466 27.51358521 -35.7331543 27.55932617 C-41.76907148 27.60522856 -45.27015121 27.24493665 -49.83203125 23.15625 C-52.4740415 19.10516762 -53.53440009 15.9724935 -52.83203125 11.15625 C-50.32215672 6.32956822 -47.55441113 3.78836215 -42.83203125 1.15625 C-40.12515471 0.75169309 -37.81069842 0.55176452 -35.109375 0.546875 C-34.37486618 0.53015747 -33.64035736 0.51343994 -32.8835907 0.49621582 C-30.51212854 0.44710811 -28.14140608 0.42574797 -25.76953125 0.40625 C-24.13913858 0.38056682 -22.50876648 0.35354355 -20.87841797 0.32519531 C-17.66457798 0.27292012 -14.45094358 0.23267962 -11.23681641 0.203125 C-7.49017834 0.16771007 -3.74572926 0.09176492 0 0 Z " fill="#D5F8A5" transform="translate(1592.83203125,781.84375)"/>
<path d="M0 0 C1.12143906 -0.01606293 2.24287811 -0.03212585 3.39830017 -0.04867554 C8.49745904 -0.09331413 13.59649232 -0.13415136 18.69580078 -0.15722656 C21.38559858 -0.1705819 24.07464062 -0.19847538 26.76416016 -0.23925781 C30.64842523 -0.29397582 34.53166142 -0.31589005 38.41625977 -0.33056641 C39.6164122 -0.35323578 40.81656464 -0.37590515 42.05308533 -0.39926147 C51.34808687 -0.37570528 51.34808687 -0.37570528 55.01416016 2.60839844 C58.15891154 6.17152999 59.14311321 7.82439587 59.67016602 12.56787109 C59.21747039 16.94392878 58.15936263 18.87643291 55.29516602 22.19287109 C51.13943509 24.65725219 47.97524688 25.58361138 43.16625977 25.70458984 C41.9797583 25.74060303 40.79325684 25.77661621 39.57080078 25.8137207 C38.30421631 25.83571533 37.03763184 25.85770996 35.73266602 25.88037109 C33.76414673 25.9239978 33.76414673 25.9239978 31.75585938 25.96850586 C28.99919018 26.02725078 26.24257019 26.07490101 23.4855957 26.11669922 C20.03209359 26.17255317 16.58190869 26.27521101 13.13005066 26.39360046 C9.87318613 26.49851419 6.61545714 26.5612873 3.35766602 26.63037109 C2.15102295 26.67701904 0.94437988 26.72366699 -0.29882812 26.77172852 C-9.64897337 26.88675199 -9.64897337 26.88675199 -13.95874023 23.35302734 C-17.06436754 20.25990527 -17.65564301 17.79300101 -18.01733398 13.38037109 C-17.96918865 9.02321872 -16.50946584 6.55842932 -13.70483398 3.19287109 C-9.25416956 0.22576147 -5.25968314 0.0687836 0 0 Z " fill="#D6F9A5" transform="translate(1264.704833984375,787.80712890625)"/>
<path d="M0 0 C1.07310858 3.27185553 0.89263102 5.42947592 0.0625 8.75 C-0.22947266 9.94882812 -0.22947266 9.94882812 -0.52734375 11.171875 C-0.68332031 11.77515625 -0.83929687 12.3784375 -1 13 C-1.99 12.67 -2.98 12.34 -4 12 C-3.52309796 10.37433394 -3.04340334 8.74948689 -2.5625 7.125 C-2.29566406 6.22007812 -2.02882813 5.31515625 -1.75390625 4.3828125 C-1 2 -1 2 0 0 Z " fill="#AED394" transform="translate(1187,603)"/>
</svg>
