<?xml version="1.0" encoding="UTF-8"?>
<svg version="1.1" xmlns="http://www.w3.org/2000/svg" width="765" height="755">
<path d="M0 0 C-2 5 -4 10 -6 15 C-6.66 15 -7.32 15 -8 15 C-8.18175781 15.65226563 -8.36351562 16.30453125 -8.55078125 16.9765625 C-8.80214844 17.85054687 -9.05351562 18.72453125 -9.3125 19.625 C-9.55613281 20.48351562 -9.79976563 21.34203125 -10.05078125 22.2265625 C-11.10834086 25.31655148 -12.53847404 28.08061105 -14 31 C-14.90909992 33.38310296 -15.78366753 35.77963745 -16.625 38.1875 C-17.05039062 39.39792969 -17.47578125 40.60835937 -17.9140625 41.85546875 C-18.62011348 43.8999689 -19.3160052 45.94801561 -20 48 C-20.66 48 -21.32 48 -22 48 C-22.11472656 49.14984375 -22.22945313 50.2996875 -22.34765625 51.484375 C-22.90284508 55.92198273 -24.08221881 60.0001727 -25.4375 64.25 C-27.54831842 71.10657262 -29.0796969 77.87108498 -30 85 C-30.66 85 -31.32 85 -32 85 C-32.06058594 85.96679688 -32.12117188 86.93359375 -32.18359375 87.9296875 C-32.26738281 89.23164062 -32.35117187 90.53359375 -32.4375 91.875 C-32.51871094 93.15117188 -32.59992188 94.42734375 -32.68359375 95.7421875 C-32.87963487 98.65528378 -33.18096974 101.53837045 -33.5234375 104.4375 C-34.21518529 111.22012924 -34.18602878 118.01880032 -34.18530273 124.82910156 C-34.18747589 127.09980411 -34.20565475 129.37000874 -34.22460938 131.640625 C-34.25696836 140.37944776 -33.71104254 148.7973289 -32.4309082 157.44482422 C-31.99991035 161.00073966 -31.92735953 164.42195458 -32 168 C-31.34 168 -30.68 168 -30 168 C-29.49411853 169.91512272 -28.99551609 171.83216922 -28.5 173.75 C-28.08234375 175.35101563 -28.08234375 175.35101563 -27.65625 176.984375 C-27 180 -27 180 -27 184 C-26.34 184 -25.68 184 -25 184 C-24.01 187.63 -23.02 191.26 -22 195 C-21.34 195 -20.68 195 -20 195 C-19.79246094 195.53367188 -19.58492188 196.06734375 -19.37109375 196.6171875 C-17.04523694 202.24206298 -14.11049886 206.94943409 -10.48828125 211.8359375 C-9 214 -9 214 -8 217 C-7.525625 217.45375 -7.05125 217.9075 -6.5625 218.375 C-4.63523928 220.37935115 -4.01239052 222.43527736 -3 225 C-2.34 225.33 -1.68 225.66 -1 226 C-0.46375 226.70125 0.0725 227.4025 0.625 228.125 C3.24418349 231.29559054 6.12193525 233.75119737 9.29296875 236.3515625 C11 238 11 238 12 241 C14.42383077 242.16953416 14.42383077 242.16953416 17 243 C17.66 243.33 18.32 243.66 19 244 C19 244.66 19 245.32 19 246 C19.969375 246.268125 20.93875 246.53625 21.9375 246.8125 C22.948125 247.204375 23.95875 247.59625 25 248 C25.33 248.99 25.66 249.98 26 251 C26.721875 251.12375 27.44375 251.2475 28.1875 251.375 C30.95721894 251.9904931 33.3970354 252.88444374 36 254 C36 254.66 36 255.32 36 256 C36.61488281 256.13277344 37.22976563 256.26554687 37.86328125 256.40234375 C38.67152344 256.57894531 39.47976563 256.75554687 40.3125 256.9375 C41.11300781 257.11152344 41.91351562 257.28554688 42.73828125 257.46484375 C45 258 45 258 48 259 C48 259.66 48 260.32 48 261 C49.03125 261.12375 50.0625 261.2475 51.125 261.375 C57.42891976 262.16014524 63.71306933 263.09051424 70 264 C70 264.66 70 265.32 70 266 C80.89 266 91.78 266 103 266 C103 265.34 103 264.68 103 264 C106.24926665 263.49515526 109.49952099 262.99697406 112.75 262.5 C113.67039062 262.35691406 114.59078125 262.21382813 115.5390625 262.06640625 C116.42851563 261.93105469 117.31796875 261.79570312 118.234375 261.65625 C119.45979004 261.46772461 119.45979004 261.46772461 120.70996094 261.27539062 C123 261 123 261 127 261 C127 260.34 127 259.68 127 259 C128.9363704 258.49564306 130.87414146 257.99666126 132.8125 257.5 C133.89144531 257.2215625 134.97039063 256.943125 136.08203125 256.65625 C139 256 139 256 142 256 C142 255.34 142 254.68 142 254 C145.63 253.01 149.26 252.02 153 251 C153 250.34 153 249.68 153 249 C159.9241798 246.03584181 166.81783567 243.27435204 174 241 C171.9768298 247.67646166 166.80678658 252.19321342 162 257 C161.67 257.66 161.34 258.32 161 259 C160.34 259 159.68 259 159 259 C158.731875 259.639375 158.46375 260.27875 158.1875 260.9375 C157 263 157 263 154 264 C153.30959426 265.65697379 152.6469365 267.3255761 152 269 C150.68678142 270.6825613 149.35386936 272.34997172 148 274 C147.649375 274.70125 147.29875 275.4025 146.9375 276.125 C145.89205084 278.21589831 144.65186942 279.35618848 143 281 C140.0013271 284.75501472 137.53227015 288.40318955 136 293 C135.34 293 134.68 293 134 293 C133.731875 294.134375 133.46375 295.26875 133.1875 296.4375 C132.5996875 298.2009375 132.5996875 298.2009375 132 300 C131.01 300.33 130.02 300.66 129 301 C127.97299556 303.32891096 127.97299556 303.32891096 127.3125 306.0625 C127.06113281 306.98160156 126.80976562 307.90070313 126.55078125 308.84765625 C126.36902344 309.55792969 126.18726563 310.26820313 126 311 C125.34 311 124.68 311 124 311 C122.515 316.445 122.515 316.445 121 322 C120.34 322 119.68 322 119 322 C118.7525 323.258125 118.505 324.51625 118.25 325.8125 C116.84944109 332.13984768 114.49787549 338.09839098 112.1796875 344.13671875 C109.50254973 351.53407312 108.3368731 359.27268388 107 367 C106.34 367 105.68 367 105 367 C104.93941406 368.06476563 104.87882813 369.12953125 104.81640625 370.2265625 C104.73186313 371.69271366 104.64722007 373.15885906 104.5625 374.625 C104.51810791 375.40335205 104.47371582 376.1817041 104.42797852 376.98364258 C104.16176112 381.55893233 103.82592881 386.12068696 103.4375 390.6875 C101.39765491 419.54143781 103.30956814 449.57724026 113 477 C113.5 478.52083333 114 480.04166667 114.5 481.5625 C115.47688226 484.51899023 116.54509825 487.41627021 117.6875 490.3125 C119 494 119 494 119 498 C115.32589215 499.17571451 111.83070817 499.07366746 108 499 C108 499.66 108 500.32 108 501 C105.58424393 501.50478485 103.16755639 502.00397642 100.75 502.5 C100.06808594 502.64308594 99.38617187 502.78617187 98.68359375 502.93359375 C95.35366879 503.61251049 92.41667449 504 89 504 C89 504.66 89 505.32 89 506 C87.23050388 506.50471197 85.45934777 507.00360685 83.6875 507.5 C82.70136719 507.7784375 81.71523438 508.056875 80.69921875 508.34375 C78 509 78 509 75 509 C75 509.66 75 510.32 75 511 C73.73160474 511.50615298 72.46016898 512.00469099 71.1875 512.5 C70.12595703 512.91765625 70.12595703 512.91765625 69.04296875 513.34375 C67 514 67 514 64 514 C64 514.66 64 515.32 64 516 C61.03 516.99 58.06 517.98 55 519 C55 519.66 55 520.32 55 521 C53.4221875 521.8971875 53.4221875 521.8971875 51.8125 522.8125 C49.57308622 524.08633659 47.37609806 525.38820565 45.1875 526.75 C43 528 43 528 41 528 C40.67 528.99 40.34 529.98 40 531 C38.67592331 531.68486725 37.34090759 532.34870203 36 533 C34.6434836 534.30973998 33.31442362 535.64802142 32 537 C30.88062843 537.94421318 29.75507292 538.88112122 28.625 539.8125 C25.54855104 542.41564912 22.98552541 545.22630633 20.4140625 548.3203125 C18.39804306 550.71503172 16.30875347 552.88364266 14 555 C13.34 555 12.68 555 12 555 C11.731875 555.763125 11.46375 556.52625 11.1875 557.3125 C10.01474509 559.96662954 9.04318638 561.03854108 7 563 C6.484375 563.886875 5.96875 564.77375 5.4375 565.6875 C4.963125 566.450625 4.48875 567.21375 4 568 C3.34 568 2.68 568 2 568 C1.5978125 569.6396875 1.5978125 569.6396875 1.1875 571.3125 C0.00886589 574.97246909 -0.49464628 575.49464628 -3 578 C-3.98628417 580.03077684 -3.98628417 580.03077684 -4.6875 582.1875 C-4.93886719 582.90292969 -5.19023437 583.61835937 -5.44921875 584.35546875 C-5.72185547 585.16951172 -5.72185547 585.16951172 -6 586 C-6.66 586 -7.32 586 -8 586 C-8.12375 586.721875 -8.2475 587.44375 -8.375 588.1875 C-8.9904931 590.95721894 -9.88444374 593.3970354 -11 596 C-11.66 596 -12.32 596 -13 596 C-13.103125 596.7425 -13.20625 597.485 -13.3125 598.25 C-14.05269611 601.21078443 -15.15719597 602.61971146 -17 605 C-17.10441406 605.66386719 -17.20882813 606.32773437 -17.31640625 607.01171875 C-18 609 -18 609 -19.99609375 610.046875 C-21.20458984 610.39492187 -21.20458984 610.39492187 -22.4375 610.75 C-23.24058594 610.99234375 -24.04367187 611.2346875 -24.87109375 611.484375 C-27 612 -27 612 -29 612 C-29 612.66 -29 613.32 -29 614 C-29.68964844 614.24234375 -30.37929688 614.4846875 -31.08984375 614.734375 C-36.561547 616.6858741 -41.88218375 618.75986723 -47.125 621.265625 C-49 622 -49 622 -52 622 C-52 622.66 -52 623.32 -52 624 C-52.7734375 624.25394531 -53.546875 624.50789062 -54.34375 624.76953125 C-61.47074524 627.12356274 -61.47074524 627.12356274 -68.5 629.75 C-72 631 -72 631 -76 631 C-76 631.66 -76 632.32 -76 633 C-76.63091553 633.11593506 -77.26183105 633.23187012 -77.91186523 633.35131836 C-80.75450681 633.87600481 -83.5959995 634.40667024 -86.4375 634.9375 C-87.43072266 635.11990234 -88.42394531 635.30230469 -89.44726562 635.49023438 C-90.39150391 635.66748047 -91.33574219 635.84472656 -92.30859375 636.02734375 C-93.18314209 636.18968506 -94.05769043 636.35202637 -94.95874023 636.51928711 C-96.98228064 636.8068839 -96.98228064 636.8068839 -98 638 C-99.92158246 638.29890449 -101.8523595 638.53915106 -103.78515625 638.75390625 C-104.95498047 638.88603516 -106.12480469 639.01816406 -107.33007812 639.15429688 C-108.56177734 639.28900391 -109.79347656 639.42371094 -111.0625 639.5625 C-112.29806641 639.70107422 -113.53363281 639.83964844 -114.80664062 639.98242188 C-117.87068212 640.32549988 -120.93512018 640.66450754 -124 641 C-124 641.66 -124 642.32 -124 643 C-128.38461538 646 -128.38461538 646 -131 646 C-131 646.66 -131 647.32 -131 648 C-135.38461538 651 -135.38461538 651 -138 651 C-138 651.66 -138 652.32 -138 653 C-142.38461538 656 -142.38461538 656 -145 656 C-145.33 656.99 -145.66 657.98 -146 659 C-147.3153341 659.70151152 -148.65117592 660.36525925 -150 661 C-151.00581381 661.9941522 -152.0047169 662.99530524 -153 664 C-154.50287685 665.25105791 -156.0249817 666.47926898 -157.5625 667.6875 C-158.34753906 668.31011719 -159.13257813 668.93273437 -159.94140625 669.57421875 C-162 671 -162 671 -164 671 C-164.309375 671.8353125 -164.309375 671.8353125 -164.625 672.6875 C-166.57683032 675.97012371 -168.94230994 677.70673246 -172 680 C-172.66 680 -173.32 680 -174 680 C-174.4021875 680.9590625 -174.4021875 680.9590625 -174.8125 681.9375 C-176 684 -176 684 -179 685 C-180.21869929 687.50447516 -180.21869929 687.50447516 -181 690 C-181.66 690 -182.32 690 -183 690 C-183.3403125 690.804375 -183.3403125 690.804375 -183.6875 691.625 C-185 694 -185 694 -187.5625 697.0625 C-190.13537799 699.80205688 -190.13537799 699.80205688 -191 703 C-192.33333333 704.33333333 -193.66666667 705.66666667 -195 707 C-196.5806748 709.10621885 -198.11636578 711.2377421 -199.6328125 713.390625 C-200.08398438 713.92171875 -200.53515625 714.4528125 -201 715 C-201.66 715 -202.32 715 -203 715 C-203.2578125 715.59296875 -203.515625 716.1859375 -203.78125 716.796875 C-205.09769895 719.17660965 -206.42580782 720.50978792 -208.5 722.25 C-209.41265625 723.03117188 -209.41265625 723.03117188 -210.34375 723.828125 C-212 725 -212 725 -214 725 C-214.33 725.99 -214.66 726.98 -215 728 C-217.5625 729.1875 -217.5625 729.1875 -220 730 C-220 730.66 -220 731.32 -220 732 C-220.71285156 732.38671875 -221.42570313 732.7734375 -222.16015625 733.171875 C-223.59681641 733.95304688 -223.59681641 733.95304688 -225.0625 734.75 C-226.07183594 735.2965625 -227.08117187 735.843125 -228.12109375 736.40625 C-230.33707416 737.63300713 -232.47840821 738.91028314 -234.625 740.25 C-238.67238245 742.34864275 -242.53525945 743.23056626 -247 744 C-247 744.66 -247 745.32 -247 746 C-248.74816858 746.50636607 -250.49862263 747.00484619 -252.25 747.5 C-253.22453125 747.7784375 -254.1990625 748.056875 -255.203125 748.34375 C-258 749 -258 749 -262 749 C-262 749.66 -262 750.32 -262 751 C-293.66251606 757.4728047 -327.33748394 757.4728047 -359 751 C-359 750.34 -359 749.68 -359 749 C-360.010625 748.87625 -361.02125 748.7525 -362.0625 748.625 C-365.87937612 748.01914665 -369.31500112 747.12806088 -373 746 C-373 745.34 -373 744.68 -373 744 C-374.0828125 743.814375 -374.0828125 743.814375 -375.1875 743.625 C-377.95721894 743.0095069 -380.3970354 742.11555626 -383 741 C-383 740.34 -383 739.68 -383 739 C-383.78375 738.690625 -384.5675 738.38125 -385.375 738.0625 C-388 737 -388 737 -390 736 C-390 735.34 -390 734.68 -390 734 C-390.78375 733.773125 -391.5675 733.54625 -392.375 733.3125 C-395 732 -395 732 -396.3125 729.375 C-396.539375 728.59125 -396.76625 727.8075 -397 727 C-397.66 727 -398.32 727 -399 727 C-401.04169485 724.09451118 -402 722.59857954 -402 719 C-402.66 719 -403.32 719 -404 719 C-406.11313647 712.95408176 -406.30163214 707.43476648 -406.25 701.0625 C-406.25773437 700.11181641 -406.26546875 699.16113281 -406.2734375 698.18164062 C-406.25761999 692.44383795 -405.63692571 687.5018892 -404 682 C-403.34 682 -402.68 682 -402 682 C-401.87625 680.96875 -401.7525 679.9375 -401.625 678.875 C-401.06110186 675.37883154 -400.21317941 672.31602373 -399 669 C-398.34 669 -397.68 669 -397 669 C-396.814375 668.1646875 -396.814375 668.1646875 -396.625 667.3125 C-395.94023145 664.77885636 -395.00866237 662.42078968 -394 660 C-393.34 660 -392.68 660 -392 660 C-391.731875 659.030625 -391.46375 658.06125 -391.1875 657.0625 C-390.795625 656.051875 -390.40375 655.04125 -390 654 C-389.01 653.67 -388.02 653.34 -387 653 C-386.566875 651.89591797 -386.566875 651.89591797 -386.125 650.76953125 C-384.70131989 647.26470765 -382.69135569 645.32800159 -380 642.6875 C-379.113125 641.80449219 -378.22625 640.92148437 -377.3125 640.01171875 C-375 638 -375 638 -373 638 C-372.67 637.01 -372.34 636.02 -372 635 C-370.68352881 634.30062468 -369.34977849 633.63270867 -368 633 C-367.67 632.34 -367.34 631.68 -367 631 C-364.70380241 629.71691614 -362.42314795 628.52607908 -360.0625 627.375 C-359.41603516 627.05015625 -358.76957031 626.7253125 -358.10351562 626.390625 C-353.26702009 624 -353.26702009 624 -351 624 C-351.495 622.515 -351.495 622.515 -352 621 C-354.50447516 619.78130071 -354.50447516 619.78130071 -357 619 C-357 618.34 -357 617.68 -357 617 C-357.61488281 616.81824219 -358.22976563 616.63648438 -358.86328125 616.44921875 C-360.07564453 616.07216797 -360.07564453 616.07216797 -361.3125 615.6875 C-362.11300781 615.44386719 -362.91351563 615.20023438 -363.73828125 614.94921875 C-366.12627536 613.9470036 -367.27281869 612.88784934 -369 611 C-371.09989652 609.82425289 -371.09989652 609.82425289 -373 609 C-373 608.34 -373 607.68 -373 607 C-373.70125 606.773125 -374.4025 606.54625 -375.125 606.3125 C-378.5984199 604.72680831 -381.172923 602.50457064 -384 600 C-385.2078422 598.97858561 -386.41618382 597.95776152 -387.625 596.9375 C-391.89897439 593.24719612 -395.11687291 589.88878072 -398 585 C-398.53625 584.484375 -399.0725 583.96875 -399.625 583.4375 C-401 582 -401 582 -401.5 579.875 C-401.665 579.25625 -401.83 578.6375 -402 578 C-402.99 577.67 -403.98 577.34 -405 577 C-405.66666667 575 -406.33333333 573 -407 571 C-407.99 570.67 -408.98 570.34 -410 570 C-411.60546875 567.12890625 -411.60546875 567.12890625 -413.1875 563.5625 C-413.98220703 561.80099609 -413.98220703 561.80099609 -414.79296875 560.00390625 C-416 557 -416 557 -416 555 C-416.66 555 -417.32 555 -418 555 C-418.50559908 553.56445975 -419.0042749 552.1264798 -419.5 550.6875 C-419.7784375 549.88699219 -420.056875 549.08648438 -420.34375 548.26171875 C-421 546 -421 546 -421 543 C-421.66 543 -422.32 543 -423 543 C-423.26554687 541.91460938 -423.53109375 540.82921875 -423.8046875 539.7109375 C-424.16133082 538.26559353 -424.5181088 536.82028278 -424.875 535.375 C-425.04902344 534.66214844 -425.22304688 533.94929687 -425.40234375 533.21484375 C-426.17143683 530.10998652 -426.96560287 527.09745853 -428.03125 524.078125 C-437.41209796 494.27123711 -434.48150445 453.14214207 -428 423 C-427.34 423 -426.68 423 -426 423 C-425.95101562 422.41992188 -425.90203125 421.83984375 -425.8515625 421.2421875 C-425.40082036 416.53270926 -424.56494752 412.48618288 -423 408 C-423 406.68 -423 405.36 -423 404 C-422.34 404 -421.68 404 -421 404 C-420.87625 402.845 -420.7525 401.69 -420.625 400.5 C-420.09721115 396.21649625 -419.11601963 392.16647328 -418 388 C-417.34 388 -416.68 388 -416 388 C-415.89042969 387.35933594 -415.78085937 386.71867187 -415.66796875 386.05859375 C-414.67670457 380.65096558 -413.32758326 376.01325624 -411 371 C-410.32496198 369.33670631 -409.65885507 367.66977011 -409 366 C-407.39775693 361.96974244 -405.72925413 357.9772845 -404 354 C-403.34 354 -402.68 354 -402 354 C-401.814375 352.9171875 -401.814375 352.9171875 -401.625 351.8125 C-401.0095069 349.04278106 -400.11555626 346.6029646 -399 344 C-398.34 344 -397.68 344 -397 344 C-396.87625 343.2575 -396.7525 342.515 -396.625 341.75 C-396.04513299 339.19858515 -395.26291261 337.2732427 -394 335 C-393.34 335 -392.68 335 -392 335 C-391.87625 334.2575 -391.7525 333.515 -391.625 332.75 C-391.04513299 330.19858515 -390.26291261 328.2732427 -389 326 C-388.34 326 -387.68 326 -387 326 C-386.855625 325.38125 -386.71125 324.7625 -386.5625 324.125 C-386 322 -386 322 -385 320 C-384.34 320 -383.68 320 -383 320 C-381.92474806 317.34771188 -380.90543849 314.71631546 -380 312 C-379.0246803 310.97591432 -378.01801357 309.98165594 -377 309 C-374.49722274 306.06991931 -372.13820578 303.20730867 -370 300 C-369.34 300 -368.68 300 -368 300 C-366.70568308 294.30500553 -367.4466532 289.72648806 -368.5234375 284.01953125 C-369.16345243 279.96435469 -369.06717207 276.09749643 -369 272 C-369.33 271.67 -369.66 271.34 -370 271 C-370.0983721 269.66956375 -370.13078592 268.33406656 -370.1328125 267 C-370.13474609 265.7934375 -370.13474609 265.7934375 -370.13671875 264.5625 C-370.13285156 263.716875 -370.12898438 262.87125 -370.125 262 C-370.13080078 260.7315625 -370.13080078 260.7315625 -370.13671875 259.4375 C-370.13542969 258.633125 -370.13414062 257.82875 -370.1328125 257 C-370.13168457 256.2575 -370.13055664 255.515 -370.12939453 254.75 C-370 253 -370 253 -369 252 C-369.00614986 250.49943401 -369.05727187 248.99904937 -369.125 247.5 C-369.20476011 231.96671786 -364.25216133 216.78662796 -360 202 C-359.34 202 -358.68 202 -358 202 C-357.86722656 201.31292969 -357.73445313 200.62585938 -357.59765625 199.91796875 C-357.42105469 199.01691406 -357.24445313 198.11585938 -357.0625 197.1875 C-356.88847656 196.29417969 -356.71445312 195.40085938 -356.53515625 194.48046875 C-356 192 -356 192 -355 189 C-354.34 189 -353.68 189 -353 189 C-352.01 185.7 -351.02 182.4 -350 179 C-349.34 179 -348.68 179 -348 179 C-347.87625 178.278125 -347.7525 177.55625 -347.625 176.8125 C-347.0095069 174.04278106 -346.11555626 171.6029646 -345 169 C-344.34 169 -343.68 169 -343 169 C-342.87625 168.2575 -342.7525 167.515 -342.625 166.75 C-342.04513299 164.19858515 -341.26291261 162.2732427 -340 160 C-339.34 160 -338.68 160 -338 160 C-337.71125 159.030625 -337.4225 158.06125 -337.125 157.0625 C-336 154 -336 154 -334 153 C-333.525625 151.88625 -333.05125 150.7725 -332.5625 149.625 C-331.1815125 146.42110899 -330.44040502 145.22819589 -328 143 C-327.67 142.34 -327.34 141.68 -327 141 C-325.92885487 138.85770975 -324.71723677 137.64568524 -323 136 C-322.34 135.01 -321.68 134.02 -321 133 C-320.34 133 -319.68 133 -319 133 C-318.7215625 132.01 -318.7215625 132.01 -318.4375 131 C-315.42762615 124.71852413 -309.94347714 119.81338563 -305 115 C-304.175 114.175 -303.35 113.35 -302.5 112.5 C-298.33333333 108.33333333 -294.16666667 104.16666667 -290 100 C-289.071875 99.0409375 -289.071875 99.0409375 -288.125 98.0625 C-286.27977718 96.27154844 -284.41714138 94.52569017 -282.5 92.8125 C-281.9328125 92.30332031 -281.365625 91.79414062 -280.78125 91.26953125 C-279 90 -279 90 -276.84375 89.51171875 C-276.2353125 89.34285156 -275.626875 89.17398438 -275 89 C-274.67 88.01 -274.34 87.02 -274 86 C-272.6846659 85.29848848 -271.34882408 84.63474075 -270 84 C-269.58234375 83.566875 -269.1646875 83.13375 -268.734375 82.6875 C-266.41192732 80.42782118 -263.82996024 78.7808217 -261.125 77 C-260.09632813 76.319375 -259.06765625 75.63875 -258.0078125 74.9375 C-250.34274194 70 -250.34274194 70 -248 70 C-248 69.34 -248 68.68 -248 68 C-246.10208305 67.05104152 -244.20395432 66.10250393 -242.3046875 65.15625 C-240.78485029 64.3937554 -239.269085 63.62308216 -237.7578125 62.84375 C-236.70207031 62.30234375 -236.70207031 62.30234375 -235.625 61.75 C-234.97789062 61.41484375 -234.33078125 61.0796875 -233.6640625 60.734375 C-232 60 -232 60 -230 60 C-230 59.34 -230 58.68 -230 58 C-225.05 56.515 -225.05 56.515 -220 55 C-220 54.34 -220 53.68 -220 53 C-219.32195312 52.75765625 -218.64390625 52.5153125 -217.9453125 52.265625 C-213.3108227 50.59669515 -208.6941329 48.9036802 -204.125 47.0625 C-203.320625 46.73894531 -202.51625 46.41539063 -201.6875 46.08203125 C-199.6661522 45.26820372 -197.64542328 44.4528388 -195.625 43.63671875 C-193.8925 42.95029297 -193.8925 42.95029297 -192.125 42.25 C-191.05507813 41.82203125 -189.98515625 41.3940625 -188.8828125 40.953125 C-186 40 -186 40 -182 40 C-182 40.66 -182 41.32 -182 42 C-183.67721041 43.56958193 -185.46794114 44.9480525 -187.2734375 46.3671875 C-189.13664279 48.12922328 -189.8839005 49.71769042 -191 52 C-191.969375 52.804375 -192.93875 53.60875 -193.9375 54.4375 C-196.83937461 56.86559916 -198.13239796 58.7983965 -200 62 C-200.99 62.33 -201.98 62.66 -203 63 C-203.61067144 64.85744207 -203.61067144 64.85744207 -204 67 C-205.63636364 70.81818182 -205.63636364 70.81818182 -208 72 C-208.33 72.66 -208.66 73.32 -209 74 C-210 76 -210 76 -212 77 C-213.05441056 79.07979206 -213.05441056 79.07979206 -214 81.5 C-215.77777778 85.88888889 -215.77777778 85.88888889 -218 87 C-220.24411646 90.78345632 -220.24411646 90.78345632 -221 95 C-221.66 95 -222.32 95 -223 95 C-223.17015625 95.556875 -223.3403125 96.11375 -223.515625 96.6875 C-224.99223 101.3372349 -226.72458622 105.59468556 -228.96484375 109.921875 C-234.40666673 120.84659133 -237.91655823 132.67523821 -239.60546875 144.734375 C-240 147 -240 147 -241 148 C-241.9433454 153.15632014 -242.1345595 158.12424385 -242.09765625 163.33984375 C-242.0962413 164.10680069 -242.09482635 164.87375763 -242.09336853 165.66395569 C-242.08781766 168.0885119 -242.07527463 170.51297219 -242.0625 172.9375 C-242.05747864 174.59179553 -242.05291685 176.24609253 -242.04882812 177.90039062 C-242.03786438 181.93363012 -242.02063424 185.96679886 -242 190 C-241.34 190 -240.68 190 -240 190 C-239.82984375 191.09957031 -239.6596875 192.19914063 -239.484375 193.33203125 C-238.22179169 201.1437678 -236.84781062 208.45672147 -233.76953125 215.80078125 C-233 218 -233 218 -233 222 C-232.34 222.33 -231.68 222.66 -231 223 C-228.9904432 225.93704456 -228 227.39222485 -228 231 C-227.34 231.33 -226.68 231.66 -226 232 C-225.443125 232.886875 -224.88625 233.77375 -224.3125 234.6875 C-222.22040611 237.95492753 -219.6572889 240.17790246 -216.671875 242.62109375 C-214.16584753 244.68798089 -211.89444587 246.95981375 -209.77734375 249.421875 C-203.8090706 254.72117687 -194.73200752 257.48392009 -187 259 C-187 259.66 -187 260.32 -187 261 C-178.75 261.33 -170.5 261.66 -162 262 C-162 257.71 -162 253.42 -162 249 C-162.66 249 -163.32 249 -164 249 C-164 240.42 -164 231.84 -164 223 C-163.34 223 -162.68 223 -162 223 C-162.02320313 222.12601563 -162.04640625 221.25203125 -162.0703125 220.3515625 C-162.1801275 212.86845469 -161.8920183 205.56675069 -161.0625 198.125 C-160.97564941 197.33432129 -160.88879883 196.54364258 -160.79931641 195.72900391 C-160.13390699 190.13390699 -160.13390699 190.13390699 -159 189 C-158.95936168 187.33382885 -158.957279 185.66611905 -159 184 C-158.34 184 -157.68 184 -157 184 C-156.95101563 183.27554688 -156.90203125 182.55109375 -156.8515625 181.8046875 C-156.44417499 176.53674556 -155.8645602 171.97216055 -154 167 C-153.20123534 164.16950575 -152.44211609 161.3297924 -151.68359375 158.48828125 C-151.17666981 156.6430781 -150.60512367 154.81537101 -150 153 C-149.34 153 -148.68 153 -148 153 C-147.87625 151.783125 -147.7525 150.56625 -147.625 149.3125 C-147.21108694 145.93520941 -146.45426549 143.10243305 -145 140 C-144.34 140 -143.68 140 -143 140 C-142.90847656 139.17242187 -142.81695312 138.34484375 -142.72265625 137.4921875 C-141.86175793 133.33195452 -140.29488923 129.92069443 -138.4375 126.125 C-137.9434668 125.09246094 -137.9434668 125.09246094 -137.43945312 124.0390625 C-136.63304639 122.3561267 -135.81745506 120.67759707 -135 119 C-134.34 119 -133.68 119 -133 119 C-132.855625 118.236875 -132.71125 117.47375 -132.5625 116.6875 C-132 114 -132 114 -131 111 C-130.34 110.67 -129.68 110.34 -129 110 C-127.38932097 107.03635059 -126.06709043 104.2012713 -125 101 C-124.34 100.67 -123.68 100.34 -123 100 C-121.95191959 98.02477154 -120.9479589 96.02518491 -120 94 C-119.34 94 -118.68 94 -118 94 C-117.34 92.35 -116.68 90.7 -116 89 C-115.34 89 -114.68 89 -114 89 C-113.62875 87.9171875 -113.62875 87.9171875 -113.25 86.8125 C-111.57262515 83.03840659 -109.12861803 80.30399226 -106.44140625 77.19921875 C-105.63509766 76.26529297 -105.63509766 76.26529297 -104.8125 75.3125 C-104.30332031 74.73113281 -103.79414063 74.14976563 -103.26953125 73.55078125 C-101.91330791 72.01038948 -101.91330791 72.01038948 -101 70 C-100.34 70 -99.68 70 -99 70 C-98.73574219 69.39671875 -98.47148437 68.7934375 -98.19921875 68.171875 C-96.94244926 65.8957713 -95.84559838 64.83181567 -93.8125 63.25 C-91.06210602 60.99604643 -88.73667686 58.65052869 -86.4375 55.9375 C-83.55016519 52.54857918 -80.50010203 49.7709141 -77 47 C-75.80859663 45.98372496 -74.62122256 44.96271112 -73.4375 43.9375 C-72.29189279 42.95806878 -71.14607545 41.97888327 -70 41 C-69.13375 40.2575 -68.2675 39.515 -67.375 38.75 C-64.98433587 36.98845801 -62.79880691 35.95959094 -60 35 C-60 34.34 -60 33.68 -60 33 C-55.61538462 30 -55.61538462 30 -53 30 C-53 29.34 -53 28.68 -53 28 C-51.13671875 26.52734375 -51.13671875 26.52734375 -48.6875 24.9375 C-47.88699219 24.41027344 -47.08648437 23.88304688 -46.26171875 23.33984375 C-44 22 -44 22 -41 21 C-40.525625 20.525625 -40.05125 20.05125 -39.5625 19.5625 C-37.81292208 17.81292208 -36.2860532 16.92870911 -34 16 C-33.01 16 -32.02 16 -31 16 C-31 15.34 -31 14.68 -31 14 C-25.375 11 -25.375 11 -22 11 C-22 10.34 -22 9.68 -22 9 C-15.375 6 -15.375 6 -12 6 C-12 5.34 -12 4.68 -12 4 C-10.56570999 3.32645501 -9.12742943 2.66140299 -7.6875 2 C-6.88699219 1.62875 -6.08648437 1.2575 -5.26171875 0.875 C-3 -0 -3 -0 0 0 Z " fill="#04324A" transform="translate(512,0)"/>
<path d="M0 0 C-0.64714433 2.7814761 -1.47344462 5.39858878 -2.5 8.0625 C-3.3845347 10.3667129 -4.2189248 12.65677439 -5 15 C-5.66 15 -6.32 15 -7 15 C-7.13277344 15.75925781 -7.26554687 16.51851562 -7.40234375 17.30078125 C-7.57894531 18.29464844 -7.75554687 19.28851563 -7.9375 20.3125 C-8.19853516 21.79169922 -8.19853516 21.79169922 -8.46484375 23.30078125 C-9 26 -9 26 -10 29 C-10.66 29 -11.32 29 -12 29 C-12.03738281 29.6290625 -12.07476562 30.258125 -12.11328125 30.90625 C-12.21189453 32.19015625 -12.21189453 32.19015625 -12.3125 33.5 C-12.37050781 34.3353125 -12.42851562 35.170625 -12.48828125 36.03125 C-12.92273325 38.55173486 -13.50237299 40.43426456 -14.4375 42.78125 C-16.14149811 47.11478625 -16.96033698 51.41450208 -17.6875 56 C-17.81705078 56.77472656 -17.94660156 57.54945312 -18.08007812 58.34765625 C-18.39390009 60.23058801 -18.69799355 62.11513705 -19 64 C-19.66 64 -20.32 64 -21 64 C-21.98315907 79.5931023 -22.12105714 95.12960796 -22.0625 110.75 C-22.05746897 113.11588446 -22.05290893 115.48176996 -22.04882812 117.84765625 C-22.03796336 123.56512762 -22.02135542 129.28255867 -22 135 C-21.34 135 -20.68 135 -20 135 C-19.84180786 135.88353149 -19.84180786 135.88353149 -19.68041992 136.78491211 C-19.18960124 139.50372271 -18.68861081 142.22056831 -18.1875 144.9375 C-18.02185547 145.86369141 -17.85621094 146.78988281 -17.68554688 147.74414062 C-15.84332877 157.65040782 -12.60788216 166.12100168 -8.20703125 175.1796875 C-7 178 -7 178 -7 181 C-6.34 181 -5.68 181 -5 181 C-4.484375 182.093125 -3.96875 183.18625 -3.4375 184.3125 C7.85474875 206.77813173 26.92569473 228.39829217 50 239 C50 239.66 50 240.32 50 241 C50.639375 241.0825 51.27875 241.165 51.9375 241.25 C54.60851515 241.90412616 56.60410257 242.70390886 59.0625 243.875 C63.62630314 245.98137068 68.21464132 247.17602279 73.10546875 248.2890625 C76 249 76 249 78.94140625 250.015625 C89.27562138 253.34157929 100.56580752 253.19963919 111.3125 253.25 C112.39692383 253.25918457 113.48134766 253.26836914 114.59863281 253.27783203 C120.80443947 253.25417464 126.60381869 252.72070451 132.6796875 251.44091797 C135.48073418 250.90864837 138.15676637 250.8463117 141 251 C141 250.34 141 249.68 141 249 C147.31972924 247.80343362 153.60794144 246.72362927 160 246 C157.55555196 250.38747085 154.97822208 254.61463537 152.19458008 258.79394531 C142.2889519 273.70925613 134.89367219 288.83325492 128.84277344 305.68383789 C128.07136259 307.80387692 127.25451566 309.90036576 126.4296875 312 C124.7205567 316.55066039 123.59835489 321.20798383 122.5 325.9375 C122.17854004 327.29935425 122.17854004 327.29935425 121.85058594 328.6887207 C120.30298582 335.37106193 118.99727796 342.07493723 117.90039062 348.84545898 C117.09033337 353.81933326 117.09033337 353.81933326 116 356 C114.61958615 364.95268402 114.67157376 374.02273997 114.625 383.0625 C114.61815689 384.34149673 114.61815689 384.34149673 114.61117554 385.64633179 C114.57390775 405.24621345 116.35357145 425.03247936 122.31958008 443.80395508 C123.30519692 446.9850184 124.00082385 450.17851321 124.6875 453.4375 C124.93886719 454.61183594 125.19023438 455.78617187 125.44921875 456.99609375 C126 460 126 460 126 463 C126.66 463 127.32 463 128 463 C128 464.32 128 465.64 128 467 C126.27192682 467.33895656 124.54248026 467.67091525 122.8125 468 C121.84957031 468.185625 120.88664062 468.37125 119.89453125 468.5625 C117.2065794 468.96877612 114.71228981 469.07933572 112 469 C112 469.66 112 470.32 112 471 C111.14728516 471.27263672 111.14728516 471.27263672 110.27734375 471.55078125 C105.39317471 473.1407862 100.7198912 474.96556414 96 477 C95.25878906 477.23976563 94.51757812 477.47953125 93.75390625 477.7265625 C70.43060529 485.32349767 49.10933436 502.09639125 32.35546875 519.671875 C31 521 31 521 30 521 C29.98018066 520.04746338 29.96036133 519.09492676 29.93994141 518.11352539 C29.86320563 514.54052668 29.77460022 510.96789966 29.68261719 507.39526367 C29.64460557 505.85627645 29.60970707 504.31720876 29.578125 502.77807617 C29.41994454 491.79712074 29.41994454 491.79712074 27.51708984 481.01538086 C26.32113238 476.354083 25.82235549 471.5135732 25.14453125 466.75390625 C24.51247543 462.5334045 23.68728256 458.94128599 22 455 C21.34263267 452.50310895 20.71915288 450.0114954 20.125 447.5 C17.35989989 436.20281281 14.13367197 425.47269081 9 415 C8.63261719 414.23816406 8.26523437 413.47632813 7.88671875 412.69140625 C6.62069599 410.1115042 5.31625912 407.55469315 4 405 C3.65888184 404.33564941 3.31776367 403.67129883 2.96630859 402.98681641 C1.7970036 400.71669499 0.61839823 398.4516101 -0.5625 396.1875 C-1.12662598 395.09284424 -1.12662598 395.09284424 -1.70214844 393.97607422 C-3.81541667 389.95419694 -6.05119028 386.48442186 -9 383 C-10.2593608 381.27763891 -11.50910617 379.54821307 -12.75 377.8125 C-26.4869586 358.89893016 -42.62968715 341.48597007 -61 327 C-63.40355286 325.05366749 -65.71198373 323.08463704 -68 321 C-68 320.34 -68 319.68 -68 319 C-68.5787085 318.89059082 -69.15741699 318.78118164 -69.75366211 318.66845703 C-72.27773682 317.91735209 -73.83495084 316.87653164 -75.94140625 315.3046875 C-76.68422852 314.75707764 -77.42705078 314.20946777 -78.19238281 313.64526367 C-78.97452148 313.06107666 -79.75666016 312.47688965 -80.5625 311.875 C-91.61886568 303.76105422 -103.0569064 296.71254166 -115 290 C-115 289.34 -115 288.68 -115 288 C-116.32 287.67 -117.64 287.34 -119 287 C-119.01458252 287.73412109 -119.02916504 288.46824219 -119.04418945 289.22460938 C-119.3508788 303.07006182 -119.65620312 316.51388085 -123 330 C-123.26167969 331.06605469 -123.52335938 332.13210938 -123.79296875 333.23046875 C-124.70709139 336.74311261 -125.65712363 340.14413805 -127.0078125 343.515625 C-127.9397998 345.8492625 -128.64499008 348.14226466 -129.3125 350.5625 C-141.73929047 392.10696619 -171.18077148 424.02101699 -207.87890625 445.50390625 C-210.99541798 446.99780361 -213.5812589 447.62470962 -217 448 C-217 448.66 -217 449.32 -217 450 C-220.06184906 450.81496642 -223.12458958 451.62653247 -226.1875 452.4375 C-227.48397461 452.78264648 -227.48397461 452.78264648 -228.80664062 453.13476562 C-234.98741148 454.76876252 -240.62909609 456.14126651 -247.0625 456.125 C-248.59583984 456.12886719 -248.59583984 456.12886719 -250.16015625 456.1328125 C-252.61649932 456.01793538 -254.65768316 455.70775041 -257 455 C-257 454.34 -257 453.68 -257 453 C-258.0725 452.896875 -259.145 452.79375 -260.25 452.6875 C-264.06517593 451.98805108 -265.11160224 451.34682318 -268 449 C-269.010625 448.5875 -270.02125 448.175 -271.0625 447.75 C-289.63484026 439.92590772 -301.32181177 423.55304929 -310 406 C-310.66 404.948125 -311.32 403.89625 -312 402.8125 C-315.06816962 397.53760839 -317 391.10339263 -317 385 C-317.66 385 -318.32 385 -319 385 C-319.26554687 383.98679687 -319.53109375 382.97359375 -319.8046875 381.9296875 C-320.16135689 380.57809823 -320.51813343 379.22653722 -320.875 377.875 C-321.04902344 377.20984375 -321.22304688 376.5446875 -321.40234375 375.859375 C-322.46344991 371.85075172 -323.66350984 367.92764456 -325 364 C-330.33418976 347.07581678 -331.10716102 328.60945945 -332.35375977 311.02270508 C-332.42522217 310.03036865 -332.49668457 309.03803223 -332.5703125 308.015625 C-332.62977051 307.14196289 -332.68922852 306.26830078 -332.75048828 305.36816406 C-332.93825853 303.03860549 -332.93825853 303.03860549 -333.51635742 300.9777832 C-334.47611627 297.05299451 -334.18464298 292.95733391 -334.1875 288.9375 C-334.19974609 288.02677734 -334.21199219 287.11605469 -334.22460938 286.17773438 C-334.22654297 285.30310547 -334.22847656 284.42847656 -334.23046875 283.52734375 C-334.23663208 282.33226196 -334.23663208 282.33226196 -334.24291992 281.11303711 C-334 279 -334 279 -332 276 C-332.39019229 272.91538694 -332.39019229 272.91538694 -333.3125 269.5 C-339.31368679 245.38663409 -337.15956038 218.44122334 -329.63476562 194.99560547 C-328.67184938 191.96834494 -327.78171975 188.91948593 -326.875 185.875 C-325.50122044 181.44043957 -323.91714497 177.23369514 -322 173 C-321.64228516 172.02353516 -321.64228516 172.02353516 -321.27734375 171.02734375 C-313.59875221 150.20586063 -300.6869158 131.29326848 -287 114 C-286.33355469 113.12472656 -285.66710937 112.24945313 -284.98046875 111.34765625 C-274.63824219 98.1663871 -262.27716187 86.19393125 -249 76 C-247.90291518 75.11579747 -246.80799005 74.22891088 -245.71484375 73.33984375 C-237.81682319 66.95472702 -229.65051351 61.31373744 -221 56 C-220.15050781 55.46890625 -219.30101562 54.9378125 -218.42578125 54.390625 C-213.38181295 51.28920978 -208.20975257 48.43575998 -203 45.625 C-202.01012085 45.08734009 -202.01012085 45.08734009 -201.00024414 44.53881836 C-196.23817727 42 -196.23817727 42 -194 42 C-194.66 43.65 -195.32 45.3 -196 47 C-196.66 47 -197.32 47 -198 47 C-198.39445312 48.08087891 -198.39445312 48.08087891 -198.796875 49.18359375 C-200.03054716 52.07150813 -201.50434004 54.45580505 -203.25 57.0625 C-208.37025448 64.96689285 -212.37068665 73.3212072 -216 82 C-216.37898438 82.77214844 -216.75796875 83.54429688 -217.1484375 84.33984375 C-220.31211834 90.86853057 -222.35224511 97.40898045 -224.10546875 104.421875 C-224.69905689 106.79622757 -225.34474572 109.15819067 -226.04296875 111.50390625 C-234.67603391 143.04102183 -229.71318027 181.58054878 -214.8125 210.4375 C-208.33160411 221.57653981 -199.94581548 232.46346908 -188 238 C-188 238.66 -188 239.32 -188 240 C-187.43152344 240.18175781 -186.86304688 240.36351562 -186.27734375 240.55078125 C-182.65527881 241.72991758 -179.1619843 242.92664862 -175.6875 244.5 C-165.8744294 248.49175753 -156.58642073 249.43636716 -146.0625 249.25 C-144.27489258 249.24226563 -144.27489258 249.24226563 -142.45117188 249.234375 C-137.49121668 249.18981617 -132.8506873 249.11146503 -128 248 C-128.06058594 247.4237085 -128.12117187 246.84741699 -128.18359375 246.25366211 C-135.24651799 177.36977698 -135.24651799 177.36977698 -123 159 C-122.42966664 156.93224742 -122.42966664 156.93224742 -122.0703125 154.6484375 C-121.91433594 153.79636719 -121.75835937 152.94429687 -121.59765625 152.06640625 C-121.28677806 150.29619903 -120.97938624 148.52537538 -120.67578125 146.75390625 C-119.55474878 140.67481146 -117.64493666 135.56486171 -115 130 C-114.14811141 127.84056148 -113.31268969 125.67449404 -112.5 123.5 C-109.13007854 114.48318311 -105.1136525 106.09021758 -100.3125 97.75 C-99.78285645 96.82832031 -99.25321289 95.90664062 -98.70751953 94.95703125 C-94.48673408 87.69009487 -90.00737342 80.75640279 -85 74 C-84.61134766 73.47003418 -84.22269531 72.94006836 -83.82226562 72.39404297 C-63.25880253 44.45455507 -37.11061314 22.46059759 -8.00390625 3.91796875 C-1.86761711 0 -1.86761711 0 0 0 Z " fill="#EC2761" transform="translate(489,23)"/>
<path d="M0 0 C10.6532231 2.98394947 21.19336348 5.4608979 32.1796875 6.890625 C31.01300302 10.39067844 30.18122676 10.82451656 27.2421875 12.890625 C18.31253574 19.64474059 11.33293538 27.9718344 6.1796875 37.890625 C5.77878906 38.64085937 5.37789063 39.39109375 4.96484375 40.1640625 C2.30180441 45.56595725 1.11971558 50.84545535 1.1796875 56.890625 C2.29227341 58.21807666 2.29227341 58.21807666 5.1171875 58.140625 C6.1278125 58.058125 7.1384375 57.975625 8.1796875 57.890625 C10.04737788 55.08908944 10.60033091 53.56098513 11.3671875 50.390625 C15.54887297 36.07719412 27.19758787 24.24029113 39.1796875 15.890625 C39.84810354 15.40145285 40.51651958 14.91228069 41.20519066 14.40828514 C48.1063171 9.75207287 53.49342136 9.05195159 61.69775391 9.20947266 C62.90865692 9.2085965 64.11955994 9.20772034 65.36715698 9.20681763 C68.65634401 9.21025804 71.94395766 9.24014295 75.23283434 9.28226137 C78.68138699 9.32001625 82.12997739 9.32331304 85.57870483 9.33041382 C92.09520272 9.34899071 98.61108966 9.39812884 105.12731969 9.45851076 C112.55174929 9.52580073 119.97620956 9.55862104 127.40086865 9.58868337 C142.66082756 9.65123585 157.92017845 9.75662907 173.1796875 9.890625 C169.68762348 13.43780366 166.16879045 16.53377055 162.1796875 19.515625 C145.70181882 32.00584946 130.05662453 45.5283105 117.4921875 62.015625 C109.33049319 72.71069165 101.25380762 83.05637142 90.1796875 90.890625 C89.43074219 91.44234375 88.68179688 91.9940625 87.91015625 92.5625 C82.17691681 96.61894261 75.38016689 100.890625 68.1796875 100.890625 C68.1796875 101.550625 68.1796875 102.210625 68.1796875 102.890625 C57.50618726 107.11355916 47.31912317 109.83734316 35.93359375 111.34765625 C32.37627048 111.661263 32.37627048 111.661263 30.1796875 112.890625 C20.95231273 114.06263367 11.61906613 114.07695588 2.33178711 114.07592773 C0.11618135 114.078126 -2.09893393 114.09640283 -4.31445312 114.11523438 C-16.20922033 114.16396915 -27.15293713 112.60540147 -38.5703125 109.265625 C-39.3746875 109.03617188 -40.1790625 108.80671875 -41.0078125 108.5703125 C-42.94699191 108.01626124 -44.88391764 107.45433106 -46.8203125 106.890625 C-46.8203125 106.230625 -46.8203125 105.570625 -46.8203125 104.890625 C-47.7278125 104.87 -48.6353125 104.849375 -49.5703125 104.828125 C-59.01346437 103.44900343 -68.05152813 96.20611242 -73.8203125 88.890625 C-75.3946373 86.30288754 -76.63892727 83.67448327 -77.8203125 80.890625 C-78.35398437 79.98376953 -78.35398437 79.98376953 -78.8984375 79.05859375 C-82.20387433 71.28521477 -79.93105923 61.05326926 -77.27734375 53.3828125 C-72.5976718 42.16665507 -66.88378275 32.02922462 -58.8203125 22.890625 C-58.35496094 22.28347656 -57.88960937 21.67632813 -57.41015625 21.05078125 C-49.12780592 10.40204511 -36.40733029 2.66647866 -23.3984375 -0.43359375 C-20.77481468 -1.05647958 -20.77481468 -1.05647958 -18.21875 -2.203125 C-12.46588476 -4.37684607 -5.67591262 -1.60372046 0 0 Z " fill="#F69A1C" transform="translate(195.8203125,631.109375)"/>
<path d="M0 0 C0.67076489 2.76989964 1.33676317 5.54079742 2 8.3125 C2.28617187 9.49102539 2.28617187 9.49102539 2.578125 10.69335938 C2.75859375 11.45068359 2.9390625 12.20800781 3.125 12.98828125 C3.37636719 14.03302612 3.37636719 14.03302612 3.6328125 15.09887695 C4 17 4 17 4 20 C4.66 20 5.32 20 6 20 C6.21914063 20.73863281 6.43828125 21.47726562 6.6640625 22.23828125 C9.00437604 29.72538188 11.95810011 36.28755912 16 43 C16.66 44.1034375 17.32 45.206875 18 46.34375 C34.71222252 73.61466121 61.97034614 97.67680937 93.5859375 105.65234375 C95.14818111 105.98992636 96.71438681 106.3100868 98.28515625 106.60546875 C100 107 100 107 101 108 C102.47081904 108.36842434 103.95207147 108.69578424 105.4375 109 C107.84329145 109.49428781 109.80084246 109.90042123 112 111 C115.98428115 111.53343268 119.9888001 111.75858519 124 112 C124.94875 112.06703125 125.8975 112.1340625 126.875 112.203125 C142.15808825 112.77217616 157.96646038 109.26360443 172.234375 103.953125 C175 103 175 103 178 103 C178 102.34 178 101.68 178 101 C178.556875 100.75765625 179.11375 100.5153125 179.6875 100.265625 C204.69712516 89.28166801 221.73992241 74.68583191 234 50 C234.66 50 235.32 50 236 50 C235.85978195 52.64624284 235.71310224 55.29184578 235.5625 57.9375 C235.50352539 59.06961914 235.50352539 59.06961914 235.44335938 60.22460938 C235.11328125 65.88671875 235.11328125 65.88671875 234 67 C233.938125 68.258125 233.87625 69.51625 233.8125 70.8125 C233.15861886 77.26957625 230.03504647 82.36853849 227 88 C225.99372804 90.01771755 224.99363356 92.03852873 224 94.0625 C221.54401531 98.9809325 218.95927669 103.81550017 216.296875 108.625 C214.98523515 110.95065091 214.98523515 110.95065091 213.9921875 113.265625 C213 115 213 115 210.375 115.75 C209.59125 115.8325 208.8075 115.915 208 116 C208 116.66 208 117.32 208 118 C203.11569353 120.2078052 198.20804613 122.33771775 193.25 124.375 C189.06815949 126.0950778 185.00267293 127.95915028 180.9375 129.9375 C173.22832914 133.54942388 165.17216214 135.94580981 157.02783203 138.37695312 C155.35745549 138.8901726 153.70487475 139.46094763 152.05859375 140.046875 C144.5132448 142.39817148 136.78655135 143.37591191 128.9375 144.0625 C128.01759277 144.14483887 127.09768555 144.22717773 126.14990234 144.31201172 C123.43389918 144.54967964 120.71718999 144.77636509 118 145 C117.30052246 145.06074707 116.60104492 145.12149414 115.88037109 145.18408203 C100.63516087 146.47539567 85.28527684 146.09416577 70 146 C70 145.34 70 144.68 70 144 C69.18660156 143.98582031 68.37320313 143.97164062 67.53515625 143.95703125 C60.23925234 143.65337721 53.73674734 142.63289641 46.75 140.5625 C46.01144775 140.34505127 45.27289551 140.12760254 44.51196289 139.90356445 C39.2761156 138.2761156 39.2761156 138.2761156 37 136 C35.36625384 135.4811151 33.71712005 135.01038453 32.0625 134.5625 C17.52456019 129.86213244 4.71863771 120.57926788 -7 111 C-8.38832031 109.93265625 -8.38832031 109.93265625 -9.8046875 108.84375 C-14.19703313 105.45499669 -18.11382359 102.10766275 -21.55078125 97.73828125 C-23.08249153 95.81649938 -23.08249153 95.81649938 -25.53125 93.7265625 C-28.4266158 90.52883255 -29.16883364 88.23058026 -30.1875 84.0625 C-30.34911621 83.41152344 -30.51073242 82.76054688 -30.67724609 82.08984375 C-32.0064277 76.52045188 -32.84439357 70.90519794 -33.5078125 65.21875 C-33.938055 61.92649584 -33.938055 61.92649584 -35.015625 58.5390625 C-38.15484024 47.25283629 -37.09490123 34.29846065 -37.125 22.6875 C-37.12967285 21.40536621 -37.1343457 20.12323242 -37.13916016 18.80224609 C-37.13706543 17.59262207 -37.1349707 16.38299805 -37.1328125 15.13671875 C-37.13168457 14.05092529 -37.13055664 12.96513184 -37.12939453 11.84643555 C-37 9 -37 9 -36 5 C-27.09 4.01 -18.18 3.02 -9 2 C-9 1.34 -9 0.68 -9 0 C-5.5657338 -0.85856655 -3.38317487 -0.97591583 0 0 Z " fill="#D6E5A5" transform="translate(273,484)"/>
<path d="M0 0 C1.06777588 3.23343153 0.92241462 5.09647691 -0.14453125 8.30859375 C-0.4084668 9.13214355 -0.67240234 9.95569336 -0.94433594 10.80419922 C-1.23083008 11.67318848 -1.51732422 12.54217773 -1.8125 13.4375 C-4.01707172 20.39685783 -5.7555855 27.00767196 -6.578125 34.2734375 C-7 37 -7 37 -7.94921875 39.62109375 C-9.48443737 44.55776328 -9.95848034 49.56451846 -10.5625 54.6875 C-10.81111967 56.7542307 -11.06230566 58.82065476 -11.31640625 60.88671875 C-11.42412354 61.79639404 -11.53184082 62.70606934 -11.64282227 63.64331055 C-12 66 -12 66 -13 69 C-14.79185217 82.64703569 -14.11083276 96.64849569 -14.0625 110.375 C-14.05747545 112.86458243 -14.05291423 115.35416585 -14.04882812 117.84375 C-14.03789706 123.895855 -14.02123451 129.94792284 -14 136 C-13.34 136 -12.68 136 -12 136 C-11.92483154 136.59312988 -11.84966309 137.18625977 -11.7722168 137.79736328 C-9.8444678 152.85507917 -7.64811813 167.50339394 -3 182 C-2.64035156 183.31097656 -2.64035156 183.31097656 -2.2734375 184.6484375 C2.84488838 202.10814727 14.03334249 219.31428673 27 232 C27.90999362 233.1135771 28.8078592 234.23729423 29.6875 235.375 C33.46389707 239.84066235 38.12862499 242.83588259 43 246 C43.68320313 246.46535156 44.36640625 246.93070313 45.0703125 247.41015625 C54.97925701 253.96931587 65.95658774 257.39311944 77.8125 257.25 C78.59351074 257.24613281 79.37452148 257.24226563 80.17919922 257.23828125 C86.26318981 257.1477943 92.08130281 256.46011913 98 255 C81.44909494 271.66954954 81.44909494 271.66954954 71 277 C70.01 277 69.02 277 68 277 C68 277.66 68 278.32 68 279 C60.54034559 281.98386177 54.39620133 281.46540044 47 279 C47 278.34 47 277.68 47 277 C45.26169922 276.63261719 45.26169922 276.63261719 43.48828125 276.2578125 C38.95245549 275.11861896 35.20730573 273.22372852 31.1875 270.875 C30.49100342 270.47394043 29.79450684 270.07288086 29.0769043 269.65966797 C13.58446414 260.59693905 -3.13757194 248.24193427 -13 233 C-13 232.34 -13 231.68 -13 231 C-13.66 231 -14.32 231 -15 231 C-31 201.39727106 -31 201.39727106 -31 193 C-31.66 193 -32.32 193 -33 193 C-33.99047942 189.04441128 -34.96527066 185.08511034 -35.9375 181.125 C-36.21529297 180.01640625 -36.49308594 178.9078125 -36.77929688 177.765625 C-37.04677734 176.66992188 -37.31425781 175.57421875 -37.58984375 174.4453125 C-37.83597412 173.45031738 -38.08210449 172.45532227 -38.33569336 171.43017578 C-39.80202205 163.85872481 -40.15723835 156.2782504 -40.16796875 148.58203125 C-40.17129715 147.72171799 -40.17462555 146.86140472 -40.17805481 145.97502136 C-40.1830783 144.16751635 -40.18546457 142.36000222 -40.18530273 140.55249023 C-40.18748094 137.83626428 -40.20566347 135.12045088 -40.22460938 132.40429688 C-40.25672249 122.08751701 -39.72113824 112.1834825 -38 102 C-37.34 102 -36.68 102 -36 102 C-36.061875 100.9275 -36.12375 99.855 -36.1875 98.75 C-36.1508805 88.27682363 -31.77627911 77.85437272 -28.61865234 67.96191406 C-27.36227007 63.97758574 -26.18151602 59.96961809 -24.9921875 55.96484375 C-24.07192757 53.21493317 -22.99067349 50.5880135 -21.82519531 47.93432617 C-20.91094251 45.79124186 -20.07375949 43.62717889 -19.24609375 41.44921875 C-18.94896484 40.66869141 -18.65183594 39.88816406 -18.34570312 39.08398438 C-17.73327045 37.46795235 -17.12396211 35.85073327 -16.51757812 34.23242188 C-16.22173828 33.45833984 -15.92589844 32.68425781 -15.62109375 31.88671875 C-15.3573999 31.18764404 -15.09370605 30.48856934 -14.82202148 29.76831055 C-14 28 -14 28 -12 26 C-11.40165446 24.47943382 -10.86493344 22.93387912 -10.375 21.375 C-10.11460938 20.55773437 -9.85421875 19.74046875 -9.5859375 18.8984375 C-9.39257812 18.27195312 -9.19921875 17.64546875 -9 17 C-8.34 17 -7.68 17 -7 17 C-6.89816406 16.30519531 -6.79632813 15.61039062 -6.69140625 14.89453125 C-5.88282994 11.50947448 -4.53324287 8.77712981 -2.9375 5.6875 C-2.38964844 4.61886719 -1.84179688 3.55023438 -1.27734375 2.44921875 C-0.85582031 1.64097656 -0.43429688 0.83273437 0 0 Z " fill="#D5E4A4" transform="translate(130,337)"/>
<path d="M0 0 C1.70905446 1.62317233 3.3695264 3.2979097 5 5 C13.78668593 13.75633469 23.54521267 20.40525568 34 27 C34.89332031 27.56775146 34.89332031 27.56775146 35.8046875 28.14697266 C41.93281437 32.0082057 47.88736198 34.94800107 54.8203125 37.078125 C57 38 57 38 59 41 C-11.75919639 41.97070616 -11.75919639 41.97070616 -39 34 C-37.2931557 30.24272898 -35.80850579 29.03582171 -32.1875 27 C-21.46029229 20.43747293 -12.8261477 10.98376658 -4.14453125 1.984375 C-2 0 -2 0 0 0 Z " fill="#EA2761" transform="translate(246,590)"/>
<path d="M0 0 C4.23301121 2.82200747 7.17159664 5.95228992 8.8125 10.875 C9.12705785 15.26567012 9.13662623 19.66191848 9.1875 24.0625 C9.22488281 25.26970703 9.26226562 26.47691406 9.30078125 27.72070312 C9.37337232 35.0967628 8.80985215 40.23848453 3.8125 45.875 C0.04401738 49.32046983 -3.83608546 49.39072442 -8.75390625 49.22265625 C-13.70652076 48.51513989 -16.31708744 45.98155318 -19.31396484 42.17163086 C-22.31463067 36.89172589 -21.85580541 31.47070493 -21.81884766 25.56225586 C-21.81252243 23.44500844 -21.85949854 21.33335483 -21.91015625 19.21679688 C-22.01653781 7.93084768 -22.01653781 7.93084768 -18.3984375 3.52734375 C-13.02991231 -1.64155387 -6.91564772 -2.44081684 0 0 Z " fill="#08314A" transform="translate(272.1875,358.125)"/>
<path d="M0 0 C5.52861999 2.09706276 9.36289078 5.72578156 12 11 C12.25767704 15.06738762 12.27103377 19.13652454 12.29516602 23.21142578 C12.31232051 25.22889084 12.35619871 27.24469093 12.40039062 29.26171875 C12.40876953 30.54175781 12.41714844 31.82179688 12.42578125 33.140625 C12.44036377 34.31141602 12.45494629 35.48220703 12.4699707 36.68847656 C11.761312 41.68185146 9.16747718 44.69517256 5.875 48.375 C1.59580817 50.79367364 -2.19809897 50.60216765 -7 50 C-11.33985116 48.77174024 -13.30079611 46.98289028 -15.6328125 43.2578125 C-18.9937438 36.99673791 -18.69701319 30.76719549 -18.5625 23.8125 C-18.57345703 22.56791016 -18.58441406 21.32332031 -18.59570312 20.04101562 C-18.5055386 8.81853762 -18.5055386 8.81853762 -14 4 C-9.61800589 0.21555054 -5.70984688 -1.09337494 0 0 Z " fill="#08314A" transform="translate(210,358)"/>
<path d="M0 0 C0.73385925 -0.00807175 1.46771851 -0.01614349 2.22381592 -0.02445984 C3.7598645 -0.03817419 5.29594193 -0.04895176 6.83203125 -0.05688477 C8.39917972 -0.06849448 9.966286 -0.08908521 11.53320312 -0.1184082 C13.81407122 -0.16097236 16.09378486 -0.17722525 18.375 -0.1875 C19.07296692 -0.20500809 19.77093384 -0.22251617 20.49005127 -0.24055481 C23.90960147 -0.22527158 25.62682765 0.00798524 28.3581543 2.13989258 C30.04285529 4.40062717 30.48981603 5.45247282 30.484375 8.23828125 C30.50628906 8.89828125 30.52820313 9.55828125 30.55078125 10.23828125 C29.53021894 13.48379616 27.77742051 14.44554669 24.921875 16.23828125 C21.81557734 16.83224714 18.76114337 16.82291962 15.60546875 16.8046875 C14.71199234 16.81088608 13.81851593 16.81708466 12.89796448 16.82347107 C11.01442553 16.83055734 9.13082379 16.82741607 7.24731445 16.81469727 C4.36487966 16.80080778 1.48567757 16.8349458 -1.39648438 16.87304688 C-3.22916746 16.8739979 -5.06185461 16.87214015 -6.89453125 16.8671875 C-8.18527306 16.88707481 -8.18527306 16.88707481 -9.50209045 16.90736389 C-15.45395092 16.81463095 -15.45395092 16.81463095 -18.62084961 13.89038086 C-20.40293841 10.6471524 -20.69878771 8.88467467 -20.078125 5.23828125 C-18.578125 2.92578125 -18.578125 2.92578125 -16.078125 1.23828125 C-10.7178228 0.37130004 -5.42886716 0.05813077 0 0 Z " fill="#D0DFA2" transform="translate(383.078125,489.76171875)"/>
<path d="M0 0 C0.87128036 0.00233139 1.74256073 0.00466278 2.64024353 0.00706482 C4.4768151 0.01678322 6.31335754 0.03852648 8.1496582 0.0715332 C10.95894799 0.12098996 13.76648576 0.13301858 16.57617188 0.13867188 C18.36329986 0.15275715 20.15041266 0.1689613 21.9375 0.1875 C22.77612076 0.1928627 23.61474152 0.1982254 24.47877502 0.20375061 C25.26316452 0.21973801 26.04755402 0.2357254 26.85571289 0.25219727 C27.54234512 0.26283707 28.22897736 0.27347687 28.93641663 0.28443909 C31.27857966 0.61106102 32.88944664 1.32849845 34.90234375 2.55859375 C36.44821251 5.65033127 36.19593896 8.15288927 35.90234375 11.55859375 C34.25630435 14.06559945 32.92310055 15.34157958 29.94311523 15.97512817 C27.44483827 16.20313229 24.97309771 16.2958402 22.46484375 16.34375 C21.08921265 16.38634193 21.08921265 16.38634193 19.68579102 16.42979431 C17.74943482 16.48376161 15.81277609 16.52768164 13.87597656 16.56225586 C10.91146534 16.62091327 7.95126103 16.72743082 4.98828125 16.83789062 C3.10553832 16.88441655 1.22272338 16.92813113 -0.66015625 16.96875 C-1.98841431 17.02144798 -1.98841431 17.02144798 -3.34350586 17.07521057 C-9.47260744 17.13065916 -9.47260744 17.13065916 -12.65234375 14.22045898 C-14.43957224 10.92887922 -14.78954792 9.24868265 -14.09765625 5.55859375 C-9.95318908 -0.0316776 -6.46991851 -0.1510555 0 0 Z " fill="#D3E2A3" transform="translate(176.09765625,493.44140625)"/>
<path d="M0 0 C2.35171131 0.59861742 4.6859378 1.26924352 7 2 C7.495 2.99 7.495 2.99 8 4 C-10.81 4 -29.62 4 -49 4 C-49 3.67 -49 3.34 -49 3 C-32.65621706 2.11680621 -16.366088 1.87153777 0 2 C0 1.34 0 0.68 0 0 Z " fill="#D82B60" transform="translate(297,627)"/>
<path d="M0 0 C0.33 0 0.66 0 1 0 C1.33 4.29 1.66 8.58 2 13 C2.66 13 3.32 13 4 13 C4.99 19.93 5.98 26.86 7 34 C6.34 33.67 5.68 33.34 5 33 C3.6896639 28.40727196 2.88955891 23.6904015 2 19 C1.68482422 17.34097656 1.68482422 17.34097656 1.36328125 15.6484375 C0.41916701 10.35871942 -0.24421406 5.37270925 0 0 Z " fill="#8B3158" transform="translate(160,359)"/>
<path d="M0 0 C1.16915233 4.6766093 0.45376457 6.69677051 -0.9375 11.25 C-1.31777344 12.51328125 -1.69804687 13.7765625 -2.08984375 15.078125 C-2.54037109 16.52445312 -2.54037109 16.52445312 -3 18 C-3.66 18 -4.32 18 -5 18 C-5 17.01 -5 16.02 -5 15 C-5.66 14.67 -6.32 14.34 -7 14 C-4.69 9.38 -2.38 4.76 0 0 Z " fill="#C4D39C" transform="translate(130,337)"/>
<path d="M0 0 C4.88049925 3.9419417 9.0580583 8.11950075 13 13 C9.1775535 12.46115292 7.76475982 10.94772136 5.375 8 C3.05444701 5.04427685 3.05444701 5.04427685 0 3 C0 2.01 0 1.02 0 0 Z " fill="#093E51" transform="translate(117,587)"/>
<path d="M0 0 C0.66 0 1.32 0 2 0 C1.67 5.28 1.34 10.56 1 16 C0.67 16 0.34 16 0 16 C-0.1953125 13.94921875 -0.390625 11.8984375 -0.5859375 9.84765625 C-0.79089844 8.93306641 -0.79089844 8.93306641 -1 8 C-1.66 7.67 -2.32 7.34 -3 7 C-2.01 4.69 -1.02 2.38 0 0 Z " fill="#93A688" transform="translate(507,534)"/>
<path d="M0 0 C0 4.35251187 -2.06165511 5.92809398 -5 9 C-7.171875 9.6796875 -7.171875 9.6796875 -9 10 C-8.06409496 8.8944811 -7.12620142 7.79064547 -6.1875 6.6875 C-5.66542969 6.07261719 -5.14335937 5.45773438 -4.60546875 4.82421875 C-3.12827531 3.14575321 -1.59960869 1.56117966 0 0 Z " fill="#D42B5F" transform="translate(430,67)"/>
<path d="M0 0 C-0.66 1.65 -1.32 3.3 -2 5 C-4.97 4.505 -4.97 4.505 -8 4 C-2.7826087 0 -2.7826087 0 0 0 Z " fill="#AE305C" transform="translate(295,65)"/>
<path d="M0 0 C2.64 0 5.28 0 8 0 C5.14521674 1.90318884 3.58058692 2.4619099 0.3125 3.125 C-0.49574219 3.29257812 -1.30398438 3.46015625 -2.13671875 3.6328125 C-2.75160156 3.75398438 -3.36648438 3.87515625 -4 4 C-3.67 3.34 -3.34 2.68 -3 2 C-2.01 2 -1.02 2 0 2 C0 1.34 0 0.68 0 0 Z " fill="#AD2F5C" transform="translate(264,472)"/>
<path d="M0 0 C1.46726798 3.81489674 0.43336419 6.29011622 -1 10 C-1.99 9.67 -2.98 9.34 -4 9 C-2.80100302 5.9168649 -1.52299523 2.93720508 0 0 Z " fill="#A0B18D" transform="translate(130,337)"/>
<path d="M0 0 C0.99 0 1.98 0 3 0 C1.7508258 3.45925163 0.32472205 6.14693203 -2 9 C-1.125 1.125 -1.125 1.125 0 0 Z " fill="#0A3F52" transform="translate(509,0)"/>
<path d="M0 0 C1 3 1 3 0.0625 5.1875 C-0.4634375 6.0846875 -0.4634375 6.0846875 -1 7 C-1.66 6.67 -2.32 6.34 -3 6 C-3 5.34 -3 4.68 -3 4 C-2.34 4 -1.68 4 -1 4 C-0.67 2.68 -0.34 1.36 0 0 Z M-4 7 C-3.34 7.33 -2.68 7.66 -2 8 C-2.33 8.66 -2.66 9.32 -3 10 C-3.66 10 -4.32 10 -5 10 C-4.67 9.01 -4.34 8.02 -4 7 Z " fill="#063A4F" transform="translate(175,156)"/>
<path d="M0 0 C0.66 0.33 1.32 0.66 2 1 C1.34 2.32 0.68 3.64 0 5 C-1.32 5 -2.64 5 -4 5 C-2.25 1.125 -2.25 1.125 0 0 Z " fill="#BF305E" transform="translate(211,619)"/>
<path d="M0 0 C-1.32 0.99 -2.64 1.98 -4 3 C-4 2.34 -4 1.68 -4 1 C-6.31 1.33 -8.62 1.66 -11 2 C-6.99642627 -0.14477164 -4.43233175 -1.47744392 0 0 Z " fill="#A6B68F" transform="translate(228,593)"/>
<path d="M0 0 C-0.375 1.9375 -0.375 1.9375 -1 4 C-1.99 4.495 -1.99 4.495 -3 5 C-5.125 4.0625 -5.125 4.0625 -7 3 C-2.25 0 -2.25 0 0 0 Z " fill="#9A325A" transform="translate(489,23)"/>
</svg>
